<svg xmlns="http://www.w3.org/2000/svg" width="3528" height="1690" viewBox="0 0 3528 1690" style="background: rgb(49, 49, 49);">
  <g fill="none" fill-rule="evenodd" transform="translate(567 455)">
    <path stroke="#FFFFFF" stroke-width="2" d="M259.038345,1 L295.935058,1 L341.79854,6.98219338 L380.72854,17.9624497 L419.641021,32.9333456 L477.604171,57.9183241 L527.597261,79.915315 L553.61036,90.9209673 L578.661281,99.9408874 L609.72119,108.960346 L609.821115,108.98387 L620.821115,110.98387 L627.725279,112.961524 L627.858579,112.989949 L634.858579,113.989949 L645.821115,115.98387 L652.858579,116.989949 L653,117 L670,117 L692.045408,115.998969 L709.116841,113.993151 L731.135113,110.99083 L759.209529,104.977802 L759.316228,104.948683 L807.316228,88.9486833 L852.297067,74.9548568 L909.270256,58.9627884 L927.213489,53.9785608 L952.157991,49.9874406 L970.082762,47 L1000,47 L1026.86815,48.992967 L1052.81115,53.9820064 L1071.68581,58.9513585 L1086.53975,64.8929323 L1100.38906,73.7960622 L1111.27275,83.6903243 L1120.16686,94.5609021 L1126.1221,105.478852 L1130,114.212038 L1130,117.937742 L1129.0237,125.748179 L1127.07152,130.628609 L1125.09374,136.556612 L1121.16795,142.4453 L1119.27889,145.27889 L1113.4971,149.133415 L1109.71231,151.025812 L1100.88957,152.006116 L1082.88957,154.006116 L1060.95459,155.001031 L1040.95006,156.001248 L1040.8356,156.013606 L1034.8356,157.013606 L1022.75746,160.029857 L1022.59386,160.086188 L1013.59386,164.086188 L1002.5862,169.089634 L995.503861,173.131757 L990.485504,176.142507 L983.418762,181.186267 L976.349209,187.240743 L967.335636,195.252591 L967.2,195.4 L961.2,203.4 L956.186267,210.418762 L956.131757,210.503861 L952.131757,217.503861 L952.080855,217.606081 L949.080855,224.606081 L945.071523,234.628609 L945.019419,234.803884 L943.019419,244.803884 L941.019419,254.803884 L941.004107,254.909464 L940.004107,265.909464 L940.002946,266.076696 L941.002946,279.076696 L942.006116,288.110432 L942.022481,288.257713 L942.080855,288.393919 L945.080855,295.393919 L945.16795,295.5547 L949.16795,301.5547 L949.26006,301.672673 L959.26006,312.672673 L959.406282,312.833517 L959.606081,312.919145 L966.606081,315.919145 L972.683772,317.948683 L979.962291,320.678797 L973.050671,449.990127 L858.972996,453.071802 L858.615592,453.081457 L858.345327,453.315525 L850.345327,460.244088 L850.219131,460.375305 L846.219131,465.375305 L842.219131,470.375305 L842.126559,470.49102 L842.071523,470.628609 L840.126559,475.49102 L836.219131,480.375305 L836.067136,480.565298 L836.019419,480.803884 L835.019419,485.803884 L834.027044,492.739808 L832.071523,497.628609 L832.023695,497.748179 L832.007722,497.875965 L831.007722,505.875965 L830.010051,512.858579 L830,513 L830,521 L830,529 L830,537 L830.019419,537.196116 L831.019419,542.196116 L833.019419,552.196116 L833.051317,552.316228 L835.026505,558.241793 L836.013606,564.164399 L836.043012,564.340836 L836.131757,564.496139 L840.131757,571.496139 L844.131757,578.496139 L844.186267,578.581238 L849.186267,585.581238 L849.292893,585.707107 L854.25373,590.667944 L858.219131,595.624695 L858.292893,595.707107 L862.292893,599.707107 L862.375305,599.780869 L867.375305,603.780869 L867.552786,603.894427 L875.552786,607.894427 L883.552786,611.894427 L892.593862,615.913812 L901.683772,618.948683 L909.648877,621.936329 L909.815711,621.982872 L925.815711,624.982872 L935.803884,626.980581 L940.803884,627.980581 L948.650907,629.943488 L954.552786,632.894427 L959.553939,634.898554 L964.441269,637.830952 L968.343146,640.757359 L971.205844,643.620058 L974.142507,648.514496 L976.056399,652.3487 L977,656.123106 L977,660 L977,664 L977,668 L977,671 L977,673.837722 L976.093665,676.556726 L974.16795,679.4453 L974.093665,679.556726 L974.051317,679.683772 L973.093665,682.556726 L971.16795,685.4453 L969.16795,688.4453 L967.222876,691.362911 L964.362911,694.222876 L961.4453,696.16795 L961.292893,696.292893 L958.343146,699.242641 L954.472136,702.145898 L950.552786,704.105573 L944.552786,707.105573 L939.543931,710.10749 L932.679729,713.049291 L924.757464,715.029857 L924.648877,715.063671 L916.724591,718.035278 L911.803884,719.019419 L904.858579,720.010051 L898.835601,721.013606 L892.904186,722.002175 L855.036744,722.998687 L845.099504,722.004963 L835.099504,721.004963 L827.124035,720.007722 L822.196116,719.019419 L817.196116,718.019419 L813.242536,717.029857 L808.196116,716.019419 L804.242536,715.029857 L800.242536,714.029857 L796.242536,713.029857 L789.639981,711.517293 L784.421291,709.093074 L784.242536,709.029857 L780.242536,708.029857 L774.316228,706.051317 L769.371391,704.071523 L769.242536,704.029857 L765.315342,703.048059 L717.384615,683.076923 L691.358979,673.066654 L691.242536,673.029857 L679.242536,670.029857 L656.171341,666.014788 L642.141421,664.010051 L641.950062,664.001248 L621.950062,665.001248 L608.923304,666.002946 L608.803884,666.019419 L588.803884,670.019419 L588.661281,670.059113 L563.661281,679.059113 L563.566184,679.098998 L509.566184,705.098998 L449.564831,734.099651 L426.635601,743.068757 L410.657162,750.058479 L393.717834,755.040634 L379.663664,760.058258 L373.683772,762.051317 L357.757464,766.029857 L341.757464,770.029857 L319.778379,775.024867 L295.893686,779.003929 L274.952435,780.001132 L255,780 L236.052559,779.001382 L219.119241,778.005286 L197.23581,774.02648 L174.291162,767.043326 L144.460299,755.107098 L130.540758,746.158822 L120.573462,739.180768 L114.640184,734.231779 L99.6549305,721.244311 L83.7656617,705.351461 L73.8137335,691.418762 L61.8601209,673.487408 L52.8837879,656.532112 L47.9230769,644.615385 L43.9486833,632.683772 L39.9397934,621.658257 L37.9486833,615.683772 L34.9486833,606.683772 L32.9701425,598.757464 L28.9874406,573.842009 L25.9954162,555.889735 L24.9984604,537.94453 L20.9991148,442.957932 L21,394 L22.9970545,368.076696 L23.9993148,341.037012 L25.9958932,319.090536 L27.9962406,296.08663 L29.9910569,274.143735 L33.9805807,254.196116 L35.9776377,237.248488 L37.9284767,232.371391 L37.9701425,232.242536 L38.9701425,228.242536 L39,228.123106 L39,228 L39,223.082763 L39.9616736,217.312721 L41.8944272,213.447214 L41.9486833,213.316228 L42.9486833,210.316228 L43.9701425,206.242536 L45.9615239,199.274721 L46.9701425,195.242536 L51.9417419,181.336336 L59.9397934,159.341743 L68.8839927,139.472408 L78.8479983,123.529999 L93.8324944,97.5581176 L110.791285,75.6114475 L120.711669,63.708041 L139.644136,47.7649112 L158.593199,33.8050558 L175.475099,22.8836596 L191.400819,15.9161573 L206.299877,9.95707936 L219.22486,6.9743912 L231.187936,3.98379156 L246.132164,1.9912279 L259.038345,1 Z" class="UYroXGxx_0"></path>
    <path stroke="#FFFFFF" stroke-width="2" d="M1960.66966,337.632868 L1960.66966,437.682599 L813.57069,452.540375 L811.648936,451.573842 L808.843215,449.815662 L807.099544,448.074966 L806.396244,446.671316 L806.332021,446.543139 L806.234373,446.438169 L805.192615,445.318302 L804.383408,443.00972 L804.331218,442.887518 L803.553128,441.356187 L802.567577,434.269532 L801.337437,428.380265 L799.549992,416.751747 L799.524443,400.730114 L798.57622,372.024442 L799.608173,359.762105 L800.597639,352.125202 L802.642764,338.7248 L803.821138,328.824975 L807.047319,323.12234 L810.796612,320.269797 L815.533368,318.375045 L1960.66966,337.632868 Z" class="UYroXGxx_1"></path>
    <g stroke="#FFFFFF" transform="translate(826 319)">
      <path width="4" height="102" d="M1029.5 17.5 L1033.5 17.5 L1033.5 119.5 L1029.5 119.5 Z" class="UYroXGxx_2"></path>
      <path width="4" height="104" d="M945.5 16.5 L949.5 16.5 L949.5 120.5 L945.5 120.5 Z" class="UYroXGxx_3"></path>
      <path width="4" height="106" d="M865.5 15.5 L869.5 15.5 L869.5 121.5 L865.5 121.5 Z" class="UYroXGxx_4"></path>
      <path width="4" height="108" d="M790.5 14.5 L794.5 14.5 L794.5 122.5 L790.5 122.5 Z" class="UYroXGxx_5"></path>
      <path width="4" height="111" d="M719.5 12.5 L723.5 12.5 L723.5 123.5 L719.5 123.5 Z" class="UYroXGxx_6"></path>
      <path width="4" height="113" d="M652.5 11.5 L656.5 11.5 L656.5 124.5 L652.5 124.5 Z" class="UYroXGxx_7"></path>
      <path width="4" height="115" d="M589.5 10.5 L593.5 10.5 L593.5 125.5 L589.5 125.5 Z" class="UYroXGxx_8"></path>
      <path width="4" height="116" d="M530.5 10.5 L534.5 10.5 L534.5 126.5 L530.5 126.5 Z" class="UYroXGxx_9"></path>
      <path width="4" height="118" d="M473.5 9.5 L477.5 9.5 L477.5 127.5 L473.5 127.5 Z" class="UYroXGxx_10"></path>
      <path width="4" height="120" d="M420.5 8.5 L424.5 8.5 L424.5 128.5 L420.5 128.5 Z" class="UYroXGxx_11"></path>
      <path width="4" height="122" d="M370.5 6.5 L374.5 6.5 L374.5 128.5 L370.5 128.5 Z" class="UYroXGxx_12"></path>
      <path width="4" height="123" d="M323.5 6.5 L327.5 6.5 L327.5 129.5 L323.5 129.5 Z" class="UYroXGxx_13"></path>
      <path width="4" height="123" d="M278.5 5.5 L282.5 5.5 L282.5 128.5 L278.5 128.5 Z" class="UYroXGxx_14"></path>
      <path width="4" height="125" d="M236.075 5.5 L240.075 5.5 L240.075 130.5 L236.075 130.5 Z" class="UYroXGxx_15"></path>
      <path width="4" height="126" d="M196.5 4.5 L200.5 4.5 L200.5 130.5 L196.5 130.5 Z" class="UYroXGxx_16"></path>
      <path width="4" height="128" d="M159.5 3.5 L163.5 3.5 L163.5 131.5 L159.5 131.5 Z" class="UYroXGxx_17"></path>
      <path width="4" height="130" d="M123.5 2.5 L127.5 2.5 L127.5 132.5 L123.5 132.5 Z" class="UYroXGxx_18"></path>
      <path width="4" height="131" d="M90.5 1.5 L94.5 1.5 L94.5 132.5 L90.5 132.5 Z" class="UYroXGxx_19"></path>
      <path width="4" height="133" d="M0.5 0.5 L4.5 0.5 L4.5 133.5 L0.5 133.5 Z" class="UYroXGxx_20"></path>
      <path width="4" height="133" d="M28.5 0.5 L32.5 0.5 L32.5 133.5 L28.5 133.5 Z" class="UYroXGxx_21"></path>
      <path width="4" height="132" d="M58.5 1.5 L62.5 1.5 L62.5 133.5 L58.5 133.5 Z" class="UYroXGxx_22"></path>
    </g>
    <path stroke="#FFFFFF" stroke-width="2" d="M1960.82439,337.358516 L1961.74388,337.377323 L1961.90351,337.380588 L1962.05622,337.333984 L1964.31395,336.64497 L1966.86398,335.817089 L1969.65237,334.691106 L1969.79849,334.631959 L1969.91933,334.53073 L1972.05968,332.737721 L1975.91006,329.700387 L1980.28657,326.058196 L1984.53795,322.039506 L1984.66859,321.91593 L1984.74799,321.754582 L1985.47402,320.279293 L1986.81935,318.163073 L1988.78831,316.407173 L1988.93286,316.278263 L1989.01883,316.104705 L1989.95952,314.205598 L1992.37927,311.372421 L1993.82723,309.573455 L1995.74186,307.736507 L1997.88719,306.282058 L1997.98321,306.208085 L1999.97754,304.469254 L2001.96523,303.199699 L2003.96428,302.416774 L2005.85065,301.466093 L2010.38471,301.412121 L2012.83409,301.286804 L2018.91329,302.187711 L2024.0321,303.197374 L2044.21063,309.564204 L2091.18781,324.231212 L2150.83512,342.30385 L2203.13725,358.211532 L2253.4361,373.665751 L2305.175,389.460813 L2352.53214,405.104028 L2358.80433,407.648117 L2363.7553,410.411509 L2368.86087,413.875802 L2373.39176,417.31564 L2376.7023,421.123925 L2380.16766,425.93854 L2383.11174,429.67178 L2385.04579,432.657679 L2387.57539,436.95332 L2389.68701,441.767629 L2390.7665,446.14166 L2391.55983,450.5888 L2392.55973,454.749971 L2392.57265,467.950223 L2391.74264,475.801095 L2390.52184,479.577873 L2389.47157,483.717056 L2387.80995,487.570456 L2386.36987,490.692248 L2381.93465,497.332543 L2379.56514,501.247558 L2376.71392,504.20541 L2372.91744,508.067153 L2369.05312,511.689157 L2363.75397,514.879287 L2358.78966,517.975239 L2352.91567,520.641029 L2348.06068,522.247553 L2340.42988,524.070196 L2332.97033,524.764527 L2324.20721,524.609289 L2316.8353,523.932993 L2311.74831,523.28308 L2307.55674,522.096828 L2304.2148,521.086651 L2300.86953,519.487985 L2295.60735,516.559102 L2292.23991,514.712247 L2287.49108,511.09848 L2281.24891,505.25253 L2276.97899,500.127421 L2273.56099,495.42054 L2270.98871,490.286732 L2270.92915,490.183683 L2268.23418,486.102204 L2266.65091,482.488489 L2265.0235,479.200686 L2264.97179,479.096298 L2264.89747,479.006592 L2262.74751,476.411551 L2260.90161,474.059929 L2260.81445,473.948915 L2260.69997,473.866362 L2258.54391,472.311606 L2256.49553,470.635243 L2256.21234,470.403814 L2255.84667,470.409688 L2242.39976,470.625687 L2242.24987,470.628094 L2242.10728,470.674346 L2238.39109,471.879745 L2229.22265,472.62432 L2229.08071,472.646193 L2215.02988,475.858685 L2201.52178,478.513236 L2187.73819,481.404918 L2174.65051,484.173539 L2153.98901,488.742434 L2122.94041,496.082213 L2104.88872,498.925321 L2089.26921,500.776356 L2080.40638,501.483848 L2067.64066,502.21715 L2062.26351,502.484311 L2060.58745,499.800191 L2058.06562,495.526486 L2051.39634,483.901956 L2046.78277,476.3306 L2046.69186,476.204617 L2041.79589,470.425011 L2035.69535,464.410461 L2035.58752,464.318361 L2028.52414,459.104279 L2023.8454,455.359188 L2023.76007,455.29797 L2019.64519,452.661474 L2019.54325,452.604273 L2012.38256,449.119927 L2006.74938,446.826765 L2001.64959,444.710906 L2001.47505,444.656581 L1995.73254,443.431278 L1985.3833,441.194604 L1978.71773,439.673754 L1973.25217,438.820601 L1965.29446,438.370848 L1960.96611,437.977646 L1960.82439,337.358516 Z" class="UYroXGxx_23"></path>
    <path stroke="#FFFFFF" d="M20.1822369 377.68556L20.0750089 392.874475 18.3951472 392.988411 18.2416276 392.998823 18.1205252 393.093749 16.4412795 394.410024 14.8151572 395.411684 12.545631 397.445867 12.4760976 397.523049 10.8631432 399.738788 8.84983358 400.771457 8.68917882 400.85386 8.61823772 401.019895 8.19045353 402.021107 6.4488061 402.060727 5.20531407 402.060619 4.13579993 400.647006 3.28900048 399.37686 2.1458946 397.550786 1.46973524 396.170523 1.18739139 377.784461 2.05972675 376.02237 2.10216598 375.897362 2.66442229 373.048866 4.60909957 371.304517 5.4887366 370.664482 7.10242493 370.653451 9.00333404 371.725575 11.1741526 373.548724 13.6503297 375.395068 15.0712527 377.143825 16.6565535 378.639361 16.7938098 378.768311 16.9820302 378.774668 18.7508926 378.834412 18.9595494 378.84146 19.1112615 378.698035 20.1822369 377.68556zM1122.02743 144.644403L1122.93852 143.219372 1124.39556 140.963514 1125.9843 139.299115 1126.09353 139.119671 1127.04741 136.380833 1128.02604 133.263169 1129.36097 130.279771 1130.53831 127.428588 1131.24345 126.301947 1132.44338 125.272673 1133.07663 125.04114 1133.93689 125.222458 1134.0543 125.986414 1134.14629 128.56796 1134.42412 130.841843 1134.46462 131.171156 1134.78379 131.261791 1137.36593 131.995032 1137.47708 132.026596 1137.59081 132.00619 1141.53846 131.297897 1145.0011 130.208602 1148.63817 128.692462 1150.98482 129.236189 1151.76404 129.349711 1151.82565 130.660192 1150.91809 133.689564 1149.39546 138.629006 1147.63245 141.993893 1145.60485 147.213925 1143.90276 151.479024 1141.90791 154.572986 1139.97318 157.66915 1137.58201 157.562518 1136.70131 155.322985 1135.24371 152.118369 1134.00369 149.485465 1132.86027 147.199106 1132.76334 147.065944 1131.1152 145.448214 1131.03473 145.384067 1129.45013 144.3686 1129.24275 144.293484 1127.64957 144.093119 1127.33488 144.053542 1127.16498 144.321367 1125.5512 146.865201 1123.79069 147.331302 1122.18101 146.319063 1122.02743 144.644403z" class="UYroXGxx_24"></path>
    <path stroke="#FFFFFF" stroke-width="2" d="M356.847545,292.842599 L357.583696,271.864277 L358.708711,266.755734 L360.026065,262.957005 L361.105825,260.071469 L363.743298,254.504674 L366.11895,250.071477 L370.696718,244.030507 L375.308044,239.372105 L380.562608,234.688164 L386.535586,230.758407 L393.620855,225.855103 L400.258292,222.535105 L410.805699,218.01793 L419.552458,214.582164 L428.497596,212.030865 L436.712051,210.812873 L446.110812,209.9392 L461.418419,209.545722 L473.828722,210.095006 L483.015033,210.820588 L494.395028,212.045534 L505.538676,213.896768 L514.329983,215.328966 L528.90672,219.664622 L539.702,222.850015 L552.977667,227.932809 L573.443055,235.82761 L589.714274,242.312507 L618.66625,253.569809 L636.796434,260.141812 L657.962029,266.36371 L671.382,270.0013 L687.093339,273.205408 L687.19648,273.220879 L710.515324,275.483093 L731.617669,276.176695 L766.557482,275.668037 L784.897435,273.690086 L799.111089,271.620134 L826.190701,267.059182 L839.926872,263.741956 L850.59847,260.812553 L858.547392,258.509123 L867.165859,257.947879 L872.152344,259.091463 L875.912731,260.466621 L879.149233,263.280553 L880.838896,265.907373 L882.034775,268.965434 L882.406404,273.03187 L882.527588,277.339499 L881.588454,280.688816 L878.672399,287.699757 L866.836249,316.414184 L811.851985,315.919957 L811.604613,315.917733 L811.384736,316.031098 L807.040169,318.271088 L806.913111,318.336598 L806.809496,318.435082 L802.905794,322.145485 L802.786197,322.259159 L802.709459,322.405229 L801.012152,325.636004 L800.958708,325.756384 L798.928555,331.285035 L798.888257,331.425925 L797.309824,339.007986 L796.120645,346.364626 L795.253329,354.585422 L795.24783,354.69173 L795.260751,362.916742 L795.247829,374.637701 L795.260751,382.109757 L795.24783,391.197359 L795.771433,406.842437 L796.357538,424.222989 L796.366506,424.327058 L798.292256,438.171685 L799.945864,445.256191 L800.002748,445.499264 L800.1672,445.687082 L804.19391,450.285936 L804.352861,450.432083 L807.846191,453.007503 L807.969957,453.085458 L809.677834,453.993971 L792.716609,496.545818 L792.67977,496.65666 L788.621016,511.765997 L787.170185,517.498419 L787.146622,517.625653 L786.169275,525.843023 L786.162276,525.961127 L786.162276,540.173118 L786.170062,540.297663 L787.396526,550.068547 L788.99245,560.130016 L789.031722,560.290464 L791.992189,569.142921 L795.285978,580.727233 L795.335137,580.862307 L799.165447,589.417064 L799.214465,589.512465 L804.099131,597.882192 L814.795884,613.859466 L814.8597,613.954764 L814.943434,614.033139 L833.6381,631.531317 L833.771535,631.636449 L844.947193,638.994718 L855.26105,644.79005 L855.376937,644.84566 L872.814644,651.87315 L886.39156,655.912821 L902.742181,659.765177 L913.77589,662.195485 L922.727344,663.653075 L930.065951,664.395235 L935.004496,665.484143 L937.269242,666.580244 L937.981034,667.808027 L937.305775,670.234528 L931.834278,674.17358 L922.534262,678.60455 L915.954626,681.217551 L908.398709,683.754145 L897.978691,686.503963 L890.413395,688.312507 L883.551914,688.991132 L877.17975,689.61486 L855.497277,690.244693 L845.560221,689.612097 L839.207854,688.736645 L833.078069,687.495881 L820.898636,685.287776 L813.256615,683.217344 L807.602471,682.109167 L789.008367,677.005347 L763.072377,667.425602 L713.929385,646.927853 L686.091844,637.745763 L659.689708,631.18741 L659.534465,631.161623 L638.536238,629.354746 L610.900612,629.356233 L610.730704,629.370805 L594.89107,632.104895 L575.048382,636.410088 L574.938101,636.440724 L541.361508,647.874803 L519.520294,657.473761 L463.803985,682.978807 L407.658909,707.466632 L363.682672,724.197884 L344.199296,730.26093 L332.06219,733.211258 L319.732195,735.787239 L304.480376,739.055768 L295.284762,740.538872 L277.700908,740.7102 L272.887219,739.677717 L269.462373,737.602473 L265.599158,735.105969 L263.313549,732.180114 L260.314629,728.335239 L258.126131,724.234279 L257.046245,721.640215 L256.124986,717.28598 L256.237755,707.223617 L257.774136,704.418823 L260.759342,698.06635 L266.337941,690.40051 L272.519286,682.397849 L279.347521,673.641586 L288.919614,661.949513 L298.580102,650.238714 L307.78763,639.792359 L320.328783,624.309585 L332.613363,607.685932 L332.676103,607.589963 L339.173831,596.284577 L343.007349,588.119779 L346.3307,580.870382 L349.062114,574.173239 L350.951985,567.889755 L351.870298,563.663279 L353.151799,556.127025 L355.213147,543.156676 L356.700333,534.592794 L357.385,528.442623 L358.442598,502.019999 L358.664451,489.278542 L358.664586,481.006174 L363.437276,480.917005 L372.766072,481.024616 L372.884449,481.018953 L379.163037,480.343958 L379.352109,480.323631 L379.520524,480.235324 L382.790062,478.520962 L382.97294,478.425071 L383.102878,478.264585 L385.209006,475.663323 L386.795052,473.482012 L386.898846,473.302539 L387.620356,471.688961 L387.707311,471.494496 L387.707463,471.281475 L387.828404,301.776664 L387.828713,301.343382 L387.512804,301.046844 L386.066278,299.689015 L384.839282,297.100252 L384.711407,296.830456 L384.456546,296.674933 L381.394778,294.806551 L381.280312,294.736701 L381.151488,294.699474 L377.749639,293.716442 L377.633358,293.682841 L377.512418,293.677952 L356.847545,292.842599 Z" class="UYroXGxx_25"></path>
    <path width="8" height="103" stroke="#FFFFFF" d="M1947.5 336.5 L1955.5 336.5 L1955.5 439.5 L1947.5 439.5 Z" class="UYroXGxx_26"></path>
    <g stroke="#FFFFFF" transform="translate(2048 272)">
      <path d="M18.2463157 42.6168311L10.7526681 40.1676368 14.0650352 31.2540433 14.2257293 30.8216149 13.807609 30.6266986C4.01566637 26.0619613-1.40993036 17.1824559 1.12274794 9.82702404 3.9327991 1.66604288 15.5140455-1.82655353 27.0202296 2.13534339 38.5264137 6.0972403 45.5023033 15.9795711 42.6922522 24.1405522 40.3054515 31.0723246 31.4878338 34.7613537 21.5565878 33.0566091L21.119562 32.9815916 20.992848 33.4065184 18.2463157 42.6168311zM73.2461597 59.6173541L65.5930054 57.1250344 67.7970767 48.1822435 72.2826924 49.4112385 67.8970265 47.1833762C58.6507121 42.4863665 53.6770142 33.9299504 56.1227479 26.827024 58.9327991 18.6660429 70.5140455 15.1734465 82.0202296 19.1353434 93.5264137 23.0972403 100.502303 32.9795711 97.6922522 41.1405522 95.3054515 48.0723246 86.4878338 51.7613537 76.5565878 50.0566091L76.119562 49.9815916 75.992848 50.4065184 73.2461597 59.6173541zM127.246316 76.6168311L119.752668 74.1676368 123.065035 65.2540433 123.225729 64.8216149 122.807609 64.6266986C113.015666 60.0619613 107.59007 51.1824559 110.122748 43.827024 112.932799 35.6660429 124.514045 32.1734465 136.02023 36.1353434 147.526414 40.0972403 154.502303 49.9795711 151.692252 58.1405522 149.305452 65.0723246 140.487834 68.7613537 130.556588 67.0566091L130.119562 66.9815916 129.992848 67.4065184 127.246316 76.6168311zM183.246316 93.6168311L175.752668 91.1676368 179.065035 82.2540433 179.225729 81.8216149 178.807609 81.6266986C169.015666 77.0619613 163.59007 68.1824559 166.122748 60.827024 168.932799 52.6660429 180.514045 49.1734465 192.02023 53.1353434 203.526414 57.0972403 210.502303 66.9795711 207.692252 75.1405522 205.305452 82.0723246 196.487834 85.7613537 186.556588 84.0566091L186.119562 83.9815916 185.992848 84.4065184 183.246316 93.6168311zM238.246316 110.616831L230.752668 108.167637 234.065035 99.2540433 234.225729 98.8216149 233.807609 98.6266986C224.015666 94.0619613 218.59007 85.1824559 221.122748 77.827024 223.932799 69.6660429 235.514045 66.1734465 247.02023 70.1353434 258.526414 74.0972403 265.502303 83.9795711 262.692252 92.1405522 260.305452 99.0723246 251.487834 102.761354 241.556588 101.056609L241.119562 100.981592 240.992848 101.406518 238.246316 110.616831zM292.246316 127.616831L284.752668 125.167637 288.065035 116.254043 288.225729 115.821615 287.807609 115.626699C278.015666 111.061961 272.59007 102.182456 275.122748 94.827024 277.932799 86.6660429 289.514045 83.1734465 301.02023 87.1353434 312.526414 91.0972403 319.502303 100.979571 316.692252 109.140552 314.305452 116.072325 305.487834 119.761354 295.556588 118.056609L295.119562 117.981592 294.992848 118.406518 292.246316 127.616831z" class="UYroXGxx_27"></path>
    </g>
    <g stroke="#FFFFFF" transform="translate(717 299)">
      <path d="M1.28595217,19.628412 C1.28595217,19.628412 4.51918557,0.483937669 24.1638326,0.974668957 C43.8084796,1.46540025 45.9647674,19.0698359 45.9647674,19.0698359 L45.74061,154.734755 C45.74061,154.734755 47.3422749,172.931723 23.4748952,172.931723 C-0.392484426,172.931723 1,154.883789 1,154.883789 L1.28595217,19.628412 Z" class="UYroXGxx_28"></path>
      <g transform="translate(17 20)">
        <path d="M0.5,7A6.5,6.5 0,1,1 13.5,7A6.5,6.5 0,1,1 0.5,7" class="UYroXGxx_29"></path>
        <path d="M0.5,31A6.5,6.5 0,1,1 13.5,31A6.5,6.5 0,1,1 0.5,31" class="UYroXGxx_30"></path>
        <path d="M0.5,56A6.5,6.5 0,1,1 13.5,56A6.5,6.5 0,1,1 0.5,56" class="UYroXGxx_31"></path>
        <path d="M0.5,82A6.5,6.5 0,1,1 13.5,82A6.5,6.5 0,1,1 0.5,82" class="UYroXGxx_32"></path>
        <path d="M0.5,107A6.5,6.5 0,1,1 13.5,107A6.5,6.5 0,1,1 0.5,107" class="UYroXGxx_33"></path>
        <path d="M0.5,131A6.5,6.5 0,1,1 13.5,131A6.5,6.5 0,1,1 0.5,131" class="UYroXGxx_34"></path>
      </g>
    </g>
    <g stroke="#FFFFFF" transform="translate(571 299)">
      <path d="M0.286176233,19.628412 C0.286176233,19.628412 3.80409331,0.0769193659 23.3960831,0.786074188 C42.9880728,1.49522901 45,19.0698359 45,19.0698359 C45,19.0698359 44.8092049,59.276006 44.7756669,79.5579962 C44.742129,99.8399864 44.7756669,154.734755 44.7756669,154.734755 C44.7756669,154.734755 43.7257095,173.171636 22.5,173.171636 C1.27429052,173.171636 -2.84217094e-14,154.883789 -2.84217094e-14,154.883789 L0.286176233,19.628412 Z" class="UYroXGxx_35"></path>
      <g transform="translate(14 18)">
        <path d="M0.5,7A6.5,6.5 0,1,1 13.5,7A6.5,6.5 0,1,1 0.5,7" class="UYroXGxx_36"></path>
        <path d="M0.5,32A6.5,6.5 0,1,1 13.5,32A6.5,6.5 0,1,1 0.5,32" class="UYroXGxx_37"></path>
        <path d="M0.5,59A6.5,6.5 0,1,1 13.5,59A6.5,6.5 0,1,1 0.5,59" class="UYroXGxx_38"></path>
        <path d="M0.5,85A6.5,6.5 0,1,1 13.5,85A6.5,6.5 0,1,1 0.5,85" class="UYroXGxx_39"></path>
        <path d="M0.5,109A6.5,6.5 0,1,1 13.5,109A6.5,6.5 0,1,1 0.5,109" class="UYroXGxx_40"></path>
        <path d="M0.5,135A6.5,6.5 0,1,1 13.5,135A6.5,6.5 0,1,1 0.5,135" class="UYroXGxx_41"></path>
      </g>
    </g>
    <g stroke="#FFFFFF" transform="translate(420 301)">
      <path d="M27.2512702,12.5827859 C27.2978441,12.4866325 27.375346,12.334736 27.4843527,12.1338452 C27.707724,11.7221895 27.979752,11.2622387 28.3014344,10.7661031 C29.2224036,9.34567798 30.3543536,7.92441289 31.7046616,6.59867387 C36.8596967,1.53743512 43.6046768,-0.748174073 52.1337559,1.28133862 C58.5942684,2.81863147 62.8763156,5.6070256 65.3721108,9.27903856 C67.4543083,12.3425335 68.0453171,15.5344187 67.8287345,18.1470368 C67.8165657,18.2938287 67.8047854,18.3925497 67.7977272,18.4387013 L44.7893512,156.062109 C44.7402995,156.177437 44.6553443,156.365955 44.5336566,156.618438 C44.2959089,157.111729 44.0059617,157.662579 43.662559,158.256532 C42.6801078,159.955792 41.4683986,161.655608 40.0182005,163.240748 C34.943549,168.787599 28.3492159,171.554452 20.0497359,170.06111 C13.0471152,168.801115 8.1245237,165.547981 4.9150692,160.90952 C3.44570896,158.785929 2.43466622,156.508641 1.80014218,154.231627 C1.57831616,153.435596 1.41952801,152.697345 1.31338148,152.036373 C1.25858254,151.695141 1.22772875,151.441547 1.213924,151.288408 L27.2512702,12.5827859 Z" class="UYroXGxx_42"></path>
      <g transform="translate(15.015 14)">
        <path d="M24.5,7A6.5,6.5 0,1,1 37.5,7A6.5,6.5 0,1,1 24.5,7" class="UYroXGxx_43"></path>
        <path d="M19.5,32A6.5,6.5 0,1,1 32.5,32A6.5,6.5 0,1,1 19.5,32" class="UYroXGxx_44"></path>
        <path d="M15.5,59A6.5,6.5 0,1,1 28.5,59A6.5,6.5 0,1,1 15.5,59" class="UYroXGxx_45"></path>
        <path d="M10.5,87A6.5,6.5 0,1,1 23.5,87A6.5,6.5 0,1,1 10.5,87" class="UYroXGxx_46"></path>
        <path d="M5.5,113A6.5,6.5 0,1,1 18.5,113A6.5,6.5 0,1,1 5.5,113" class="UYroXGxx_47"></path>
        <path d="M0.5,139A6.5,6.5 0,1,1 13.5,139A6.5,6.5 0,1,1 0.5,139" class="UYroXGxx_48"></path>
      </g>
    </g>
    <path stroke="#FFFFFF" d="M209.005879,559.183831 C209.005879,559.183831 243.758716,517.157832 271.375376,537.717019 C298.992036,558.276206 270.608336,600.725334 270.608336,600.725334 L241.861881,637.08045 L211.972148,666.93232 C211.972148,666.93232 190.167047,684.31169 178.403501,688.968589 C166.639956,693.625488 156.198595,696.688243 149.361546,691.718319 C142.524496,686.748395 141.799445,678.497534 148.777224,652.756966 C151.990647,640.902861 154.812459,635.55809 157.614256,630.186955 C160.416053,624.81582 164.446954,617.789838 173.007525,604.489865 C188.875782,579.836441 209.005879,559.183831 209.005879,559.183831 Z" class="UYroXGxx_49"></path>
    <path stroke="#FFFFFF" d="M211.359121,570.801896 L222.526873,576.290684 L246.530335,596.419805 L251.734268,603.544443 C251.734268,603.544443 253.790943,609.259861 252.909908,610.377642 C252.613633,610.753529 247.604372,618.921901 240.815146,626.285822 C236.698601,630.750825 228.843632,640.58118 219.761631,649.428439 C210.679629,658.275698 204.853747,661.824377 204.853747,661.824377 C204.853747,661.824377 174.670608,680.61469 163.456753,669.071524 C152.242898,657.528358 163.456753,632.250463 163.456753,632.250463 C163.456753,632.250463 170.824206,615.332054 175.772976,608.983834 C178.151601,605.932563 185.381167,594.056515 193.374636,585.594536 C197.089156,581.662303 200.36548,577.78033 203.739693,575.189962 C207.113906,572.599595 211.359121,570.801896 211.359121,570.801896 Z" class="UYroXGxx_50"></path>
    <path stroke="#FFFFFF" d="M259.5,548A6.5,6.5 0,1,1 272.5,548A6.5,6.5 0,1,1 259.5,548" class="UYroXGxx_51"></path>
    <path stroke="#FFFFFF" d="M149.5,683A6.5,6.5 0,1,1 162.5,683A6.5,6.5 0,1,1 149.5,683" class="UYroXGxx_52"></path>
    <path stroke="#FFFFFF" d="M218.993951,584.45906 L224.830863,589.121182 L240.356326,602.836584 L241.432159,609.390099 L237.748078,613.483845 L229.672139,614.404049 L223.761102,614.049 L212.539782,605.41864 L208.649515,597.57811 L209.125845,593.432282 L218.993951,584.45906 Z" class="UYroXGxx_53"></path>
    <path stroke="#FFFFFF" transform="rotate(34 221.301 605.337)" d="M214.801,605.337A6.5,2.956 0,1,1 227.801,605.337A6.5,2.956 0,1,1 214.801,605.337" class="UYroXGxx_54"></path>
    <path stroke="#FFFFFF" transform="rotate(35 223.197 604.308)" d="M213.056,604.308A10.141,6.323 0,1,1 233.338,604.308A10.141,6.323 0,1,1 213.056,604.308" class="UYroXGxx_55"></path>
    <path stroke="#FFFFFF" d="M295.907,297.055L378.051,298.155L379.781,299.639L381.286,301.415L383.075,303.626L384.161,309.164L384.161,471.057L382.918,472.548L380.213,474.732L378.392,476.361L376.749,477.364L375.046,478.489L344.713,478.489L342.909,479.668L343.045,484.649L343.251,488.668L343.107,493.698L343.178,497.897L341.401,500.146L336.722,501.44L332.337,502.137L326.729,502.137L317.275,502.438L306.706,502.21L293.539,502.331L291.424,501.756L290.103,500.119L288.983,498.723L288.793,494.912L288.884,479.018L288.983,298.977L295.907,298.807Z" class="UYroXGxx_56"></path>
    <g stroke="#FFFFFF" transform="translate(284 312)">
      <path d="M0.5,6.5A6,6 0,1,1 12.5,6.5A6,6 0,1,1 0.5,6.5" class="UYroXGxx_57"></path>
      <path d="M0.5,34.5A6,6 0,1,1 12.5,34.5A6,6 0,1,1 0.5,34.5" class="UYroXGxx_58"></path>
      <path d="M0.5,62.5A6,6 0,1,1 12.5,62.5A6,6 0,1,1 0.5,62.5" class="UYroXGxx_59"></path>
      <path d="M0.5,90.5A6,6 0,1,1 12.5,90.5A6,6 0,1,1 0.5,90.5" class="UYroXGxx_60"></path>
      <path d="M0.5,117.5A6,6 0,1,1 12.5,117.5A6,6 0,1,1 0.5,117.5" class="UYroXGxx_61"></path>
      <path d="M0.5,144.5A6,6 0,1,1 12.5,144.5A6,6 0,1,1 0.5,144.5" class="UYroXGxx_62"></path>
    </g>
    <path width="5" height="178" stroke="#FFFFFF" d="M289.5 299.5 L294.5 299.5 L294.5 477.5 L289.5 477.5 Z" class="UYroXGxx_63"></path>
    <path stroke="#FFFFFF" d="M445.5,657A7.5,7.5 0,1,1 460.5,657A7.5,7.5 0,1,1 445.5,657" class="UYroXGxx_64"></path>
    <path stroke="#FFFFFF" d="M519.5,589A7.5,7.5 0,1,1 534.5,589A7.5,7.5 0,1,1 519.5,589" class="UYroXGxx_65"></path>
    <path stroke="#FFFFFF" d="M457.656634,621.421226 L521.224727,621.706274 C521.322374,621.814467 521.439085,621.956815 521.55549,622.122406 C521.806667,622.479715 521.963484,622.825674 521.987724,623.114207 C521.989901,623.140121 521.990986,623.165411 521.990986,623.190073 C521.990986,623.232024 521.987846,623.275966 521.981531,623.321828 C521.942767,623.603388 521.788474,623.935824 521.552461,624.27925 C521.436236,624.448371 521.31971,624.594456 521.221839,624.706251 L457.676906,624.421307 C457.616482,624.316879 457.548574,624.189632 457.480534,624.045695 C457.305581,623.675582 457.191134,623.313435 457.16348,622.992568 C457.159218,622.94312 457.157075,622.89505 457.157075,622.848447 C457.157075,622.502775 457.273864,622.12096 457.472082,621.739857 C457.536064,621.616841 457.599798,621.509185 457.656634,621.421226 Z" transform="rotate(-43 489.574 623.064)" class="UYroXGxx_66"></path>
    <path stroke="#FFFFFF" d="M475.5,624.5A11,11 0,1,1 497.5,624.5A11,11 0,1,1 475.5,624.5" class="UYroXGxx_67"></path>
    <path stroke="#FFFFFF" d="M306.5,481.5A6,6 0,1,1 318.5,481.5A6,6 0,1,1 306.5,481.5" class="UYroXGxx_68"></path>
    <g stroke="#FFFFFF" transform="translate(307 475)">
      <path d="M1.0086004 9.39187322L.714979755 4.71101393 2.24812796 2.11720395 4.14972314 1.22197246 7.42462523 2.03987898 9.94960436 4.40087022 10.1018594 8.63674112 10.1112912 8.89914229 10.3326676 9.04033655 195.779249 127.318491 195.898991 127.394862 196.041 127.396884 217.249547 127.698831 217.776182 138.024553 190.535088 136.25233 5.27934018 16.3416101 1.98328892 12.2547374 1.0086004 9.39187322zM218.110408 127.677938L222.901369 124.577421 231.890875 121.207163 241.606923 119.810906 252.469451 118.421776 266.341515 117.626459 278.055002 118.052355 287.82631 118.590346 293.294369 121.141638 295.734856 123.61396 296.329431 127.262055 295.960348 130.35647 293.60149 132.354947 289.428822 134.646568 282.171424 136.45372 270.001081 138.170834 258.636021 139.686063 248.50606 140.248684 238.556007 140.157189 229.550267 139.399589 224.069876 139.078551 218.437274 137.818299 218.110408 127.677938z" class="UYroXGxx_69"></path>
    </g>
    <g stroke="#FFFFFF" transform="translate(307 306)">
      <g transform="translate(3 27)">
        <path width="51" height="25" d="M0.5 0.5 L51.5 0.5 L51.5 25.5 L0.5 25.5 Z" class="UYroXGxx_70"></path>
        <path width="11" height="25" d="M40.5 0.5 L51.5 0.5 L51.5 25.5 L40.5 25.5 Z" class="UYroXGxx_71"></path>
        <path width="11" height="25" d="M0.5 0.5 L11.5 0.5 L11.5 25.5 L0.5 25.5 Z" class="UYroXGxx_72"></path>
        <path d="M39.5,5.5A3,3 0,1,1 45.5,5.5A3,3 0,1,1 39.5,5.5" class="UYroXGxx_73"></path>
        <path d="M39.5,20.5A3,3 0,1,1 45.5,20.5A3,3 0,1,1 39.5,20.5" class="UYroXGxx_74"></path>
        <path d="M41.5,5.5A1,1 0,1,1 43.5,5.5A1,1 0,1,1 41.5,5.5" class="UYroXGxx_75"></path>
        <path d="M41.5,20.5A1,1 0,1,1 43.5,20.5A1,1 0,1,1 41.5,20.5" class="UYroXGxx_76"></path>
        <path d="M18.5,13.5A6,3 0,1,1 30.5,13.5A6,3 0,1,1 18.5,13.5" class="UYroXGxx_77"></path>
      </g>
      <path width="51" height="25" d="M0.5 0.5 L51.5 0.5 L51.5 25.5 L0.5 25.5 Z" class="UYroXGxx_78"></path>
      <path width="11" height="25" d="M40.5 0.5 L51.5 0.5 L51.5 25.5 L40.5 25.5 Z" class="UYroXGxx_79"></path>
      <path width="11" height="25" d="M0.5 0.5 L11.5 0.5 L11.5 25.5 L0.5 25.5 Z" class="UYroXGxx_80"></path>
      <path d="M39.5,5.5A3,3 0,1,1 45.5,5.5A3,3 0,1,1 39.5,5.5" class="UYroXGxx_81"></path>
      <path d="M39.5,20.5A3,3 0,1,1 45.5,20.5A3,3 0,1,1 39.5,20.5" class="UYroXGxx_82"></path>
      <path d="M41.5,5.5A1,1 0,1,1 43.5,5.5A1,1 0,1,1 41.5,5.5" class="UYroXGxx_83"></path>
      <path d="M41.5,20.5A1,1 0,1,1 43.5,20.5A1,1 0,1,1 41.5,20.5" class="UYroXGxx_84"></path>
      <path d="M18.5,13.5A6,3 0,1,1 30.5,13.5A6,3 0,1,1 18.5,13.5" class="UYroXGxx_85"></path>
      <g transform="translate(5 55)">
        <path width="51" height="25" d="M0.5 0.5 L51.5 0.5 L51.5 25.5 L0.5 25.5 Z" class="UYroXGxx_86"></path>
        <path width="11" height="25" d="M40.5 0.5 L51.5 0.5 L51.5 25.5 L40.5 25.5 Z" class="UYroXGxx_87"></path>
        <path width="11" height="25" d="M0.5 0.5 L11.5 0.5 L11.5 25.5 L0.5 25.5 Z" class="UYroXGxx_88"></path>
        <path d="M39.5,5.5A3,3 0,1,1 45.5,5.5A3,3 0,1,1 39.5,5.5" class="UYroXGxx_89"></path>
        <path d="M39.5,20.5A3,3 0,1,1 45.5,20.5A3,3 0,1,1 39.5,20.5" class="UYroXGxx_90"></path>
        <path d="M41.5,5.5A1,1 0,1,1 43.5,5.5A1,1 0,1,1 41.5,5.5" class="UYroXGxx_91"></path>
        <path d="M41.5,20.5A1,1 0,1,1 43.5,20.5A1,1 0,1,1 41.5,20.5" class="UYroXGxx_92"></path>
        <path d="M18.5,13.5A6,3 0,1,1 30.5,13.5A6,3 0,1,1 18.5,13.5" class="UYroXGxx_93"></path>
      </g>
      <g transform="translate(1 83)">
        <path width="51" height="25" d="M0.5 0.5 L51.5 0.5 L51.5 25.5 L0.5 25.5 Z" class="UYroXGxx_94"></path>
        <path width="11" height="25" d="M40.5 0.5 L51.5 0.5 L51.5 25.5 L40.5 25.5 Z" class="UYroXGxx_95"></path>
        <path width="11" height="25" d="M0.5 0.5 L11.5 0.5 L11.5 25.5 L0.5 25.5 Z" class="UYroXGxx_96"></path>
        <path d="M39.5,5.5A3,3 0,1,1 45.5,5.5A3,3 0,1,1 39.5,5.5" class="UYroXGxx_97"></path>
        <path d="M39.5,20.5A3,3 0,1,1 45.5,20.5A3,3 0,1,1 39.5,20.5" class="UYroXGxx_98"></path>
        <path d="M41.5,5.5A1,1 0,1,1 43.5,5.5A1,1 0,1,1 41.5,5.5" class="UYroXGxx_99"></path>
        <path d="M41.5,20.5A1,1 0,1,1 43.5,20.5A1,1 0,1,1 41.5,20.5" class="UYroXGxx_100"></path>
        <path d="M18.5,13.5A6,3 0,1,1 30.5,13.5A6,3 0,1,1 18.5,13.5" class="UYroXGxx_101"></path>
      </g>
      <g transform="translate(2 110)">
        <path width="51" height="25" d="M0.5 0.5 L51.5 0.5 L51.5 25.5 L0.5 25.5 Z" class="UYroXGxx_102"></path>
        <path width="11" height="25" d="M40.5 0.5 L51.5 0.5 L51.5 25.5 L40.5 25.5 Z" class="UYroXGxx_103"></path>
        <path width="11" height="25" d="M0.5 0.5 L11.5 0.5 L11.5 25.5 L0.5 25.5 Z" class="UYroXGxx_104"></path>
        <path d="M39.5,5.5A3,3 0,1,1 45.5,5.5A3,3 0,1,1 39.5,5.5" class="UYroXGxx_105"></path>
        <path d="M39.5,20.5A3,3 0,1,1 45.5,20.5A3,3 0,1,1 39.5,20.5" class="UYroXGxx_106"></path>
        <path d="M41.5,5.5A1,1 0,1,1 43.5,5.5A1,1 0,1,1 41.5,5.5" class="UYroXGxx_107"></path>
        <path d="M41.5,20.5A1,1 0,1,1 43.5,20.5A1,1 0,1,1 41.5,20.5" class="UYroXGxx_108"></path>
        <path d="M18.5,13.5A6,3 0,1,1 30.5,13.5A6,3 0,1,1 18.5,13.5" class="UYroXGxx_109"></path>
      </g>
      <g transform="translate(5 137)">
        <path width="51" height="25" d="M0.5 0.5 L51.5 0.5 L51.5 25.5 L0.5 25.5 Z" class="UYroXGxx_110"></path>
        <path width="11" height="25" d="M40.5 0.5 L51.5 0.5 L51.5 25.5 L40.5 25.5 Z" class="UYroXGxx_111"></path>
        <path width="11" height="25" d="M0.5 0.5 L11.5 0.5 L11.5 25.5 L0.5 25.5 Z" class="UYroXGxx_112"></path>
        <path d="M39.5,5.5A3,3 0,1,1 45.5,5.5A3,3 0,1,1 39.5,5.5" class="UYroXGxx_113"></path>
        <path d="M39.5,20.5A3,3 0,1,1 45.5,20.5A3,3 0,1,1 39.5,20.5" class="UYroXGxx_114"></path>
        <path d="M41.5,20.5A1,1 0,1,1 43.5,20.5A1,1 0,1,1 41.5,20.5" class="UYroXGxx_115"></path>
        <path d="M41.5,5.5A1,1 0,1,1 43.5,5.5A1,1 0,1,1 41.5,5.5" class="UYroXGxx_116"></path>
        <path d="M18.5,13.5A6,3 0,1,1 30.5,13.5A6,3 0,1,1 18.5,13.5" class="UYroXGxx_117"></path>
      </g>
    </g>
    <path stroke="#FFFFFF" d="M281.5,697A30.5,30.5 0,1,1 342.5,697A30.5,30.5 0,1,1 281.5,697" class="UYroXGxx_118"></path>
    <path stroke="#FFFFFF" d="M290.5,697.5A21,21 0,1,1 332.5,697.5A21,21 0,1,1 290.5,697.5" class="UYroXGxx_119"></path>
    <path stroke="#FFFFFF" d="M351.5,615A30.5,30.5 0,1,1 412.5,615A30.5,30.5 0,1,1 351.5,615" class="UYroXGxx_120"></path>
    <path stroke="#FFFFFF" d="M360.5,615.5A21,21 0,1,1 402.5,615.5A21,21 0,1,1 360.5,615.5" class="UYroXGxx_121"></path>
    <path stroke="#FFFFFF" d="M401.5,520A30.5,30.5 0,1,1 462.5,520A30.5,30.5 0,1,1 401.5,520" class="UYroXGxx_122"></path>
    <path stroke="#FFFFFF" d="M410.5,520.5A21,21 0,1,1 452.5,520.5A21,21 0,1,1 410.5,520.5" class="UYroXGxx_123"></path>
    <g stroke="#FFFFFF" transform="translate(269 217)">
      <path d="M0.5,503A6.5,6.5 0,1,1 13.5,503A6.5,6.5 0,1,1 0.5,503" class="UYroXGxx_124"></path>
      <path d="M91.5,276A6.5,6.5 0,1,1 104.5,276A6.5,6.5 0,1,1 91.5,276" class="UYroXGxx_125"></path>
      <path d="M137.5,478A6.5,6.5 0,1,1 150.5,478A6.5,6.5 0,1,1 137.5,478" class="UYroXGxx_126"></path>
      <path d="M257.5,422A6.5,6.5 0,1,1 270.5,422A6.5,6.5 0,1,1 257.5,422" class="UYroXGxx_127"></path>
      <path d="M488.5,440A6.5,6.5 0,1,1 501.5,440A6.5,6.5 0,1,1 488.5,440" class="UYroXGxx_128"></path>
      <path d="M634.5,456A6.5,6.5 0,1,1 647.5,456A6.5,6.5 0,1,1 634.5,456" class="UYroXGxx_129"></path>
      <path d="M514.5,255A6.5,6.5 0,1,1 527.5,255A6.5,6.5 0,1,1 514.5,255" class="UYroXGxx_130"></path>
      <path d="M591.5,58A6.5,6.5 0,1,1 604.5,58A6.5,6.5 0,1,1 591.5,58" class="UYroXGxx_131"></path>
      <path d="M392.5,61A6.5,6.5 0,1,1 405.5,61A6.5,6.5 0,1,1 392.5,61" class="UYroXGxx_132"></path>
      <path d="M220.5,7A6.5,6.5 0,1,1 233.5,7A6.5,6.5 0,1,1 220.5,7" class="UYroXGxx_133"></path>
      <path d="M95.5,48A6.5,6.5 0,1,1 108.5,48A6.5,6.5 0,1,1 95.5,48" class="UYroXGxx_134"></path>
    </g>
    <g stroke="#FFFFFF" transform="translate(366 311)">
      <path d="M0.5,8A7.5,7.5 0,1,1 15.5,8A7.5,7.5 0,1,1 0.5,8" class="UYroXGxx_135"></path>
      <path d="M0.5,35A7.5,7.5 0,1,1 15.5,35A7.5,7.5 0,1,1 0.5,35" class="UYroXGxx_136"></path>
      <path d="M0.5,63A7.5,7.5 0,1,1 15.5,63A7.5,7.5 0,1,1 0.5,63" class="UYroXGxx_137"></path>
      <path d="M0.5,90A7.5,7.5 0,1,1 15.5,90A7.5,7.5 0,1,1 0.5,90" class="UYroXGxx_138"></path>
      <path d="M0.5,118A7.5,7.5 0,1,1 15.5,118A7.5,7.5 0,1,1 0.5,118" class="UYroXGxx_139"></path>
      <path d="M0.5,146A7.5,7.5 0,1,1 15.5,146A7.5,7.5 0,1,1 0.5,146" class="UYroXGxx_140"></path>
    </g>
    <g stroke="#FFFFFF" transform="translate(834 346)">
      <path d="M0.5,40A7.5,7.5 0,1,1 15.5,40A7.5,7.5 0,1,1 0.5,40" class="UYroXGxx_141"></path>
      <path d="M60.5,41A7.5,7.5 0,1,1 75.5,41A7.5,7.5 0,1,1 60.5,41" class="UYroXGxx_142"></path>
      <path d="M127.5,40A7.5,7.5 0,1,1 142.5,40A7.5,7.5 0,1,1 127.5,40" class="UYroXGxx_143"></path>
      <path d="M202.5,41A7.5,7.5 0,1,1 217.5,41A7.5,7.5 0,1,1 202.5,41" class="UYroXGxx_144"></path>
      <path d="M333.5,73A7.5,7.5 0,1,1 348.5,73A7.5,7.5 0,1,1 333.5,73" class="UYroXGxx_145"></path>
      <path d="M488.5,41A7.5,7.5 0,1,1 503.5,41A7.5,7.5 0,1,1 488.5,41" class="UYroXGxx_146"></path>
      <path d="M607.5,41A7.5,7.5 0,1,1 622.5,41A7.5,7.5 0,1,1 607.5,41" class="UYroXGxx_147"></path>
      <path d="M741.5,41A7.5,7.5 0,1,1 756.5,41A7.5,7.5 0,1,1 741.5,41" class="UYroXGxx_148"></path>
      <path d="M892.5,41A7.5,7.5 0,1,1 907.5,41A7.5,7.5 0,1,1 892.5,41" class="UYroXGxx_149"></path>
      <path d="M333.5,8A7.5,7.5 0,1,1 348.5,8A7.5,7.5 0,1,1 333.5,8" class="UYroXGxx_150"></path>
    </g>
    <g stroke="#FFFFFF" transform="translate(295 315)">
      <path width="11" height="6" d="M0.5 0.5 L11.5 0.5 L11.5 6.5 L0.5 6.5 Z" class="UYroXGxx_151"></path>
      <path width="14" height="6" d="M0.5 28.5 L14.5 28.5 L14.5 34.5 L0.5 34.5 Z" class="UYroXGxx_152"></path>
      <path width="16" height="6" d="M0.5 56.5 L16.5 56.5 L16.5 62.5 L0.5 62.5 Z" class="UYroXGxx_153"></path>
      <path width="12" height="6" d="M0.5 84.5 L12.5 84.5 L12.5 90.5 L0.5 90.5 Z" class="UYroXGxx_154"></path>
      <path width="13" height="6" d="M0.5 111.5 L13.5 111.5 L13.5 117.5 L0.5 117.5 Z" class="UYroXGxx_155"></path>
      <path width="16" height="6" d="M0.5 138.5 L16.5 138.5 L16.5 144.5 L0.5 144.5 Z" class="UYroXGxx_156"></path>
    </g>
    <g stroke="#FFFFFF" transform="translate(332 318)">
      <path stroke-width="3" d="M.0248716602 1.5006182L1.5 1.52506589 1707.91102 29.8058721 1708.98286 29.8236359 1709.38617 29.83032 1709.18449 29.6252698 1708.93356 29.370148 1707.91102 28.330526 1707.91102 29.3534718 1707.91102 29.8058721 1707.91102 30.8781342 1708.98286 29.8236359 1709.18449 29.6252698 1709.43548 29.3783337 1708.93356 29.370148 1707.91102 29.3534718 1.5 1.52426346.0244596769 1.50019944.0248716602 1.5006182 1.5 3 1.5 1.52506589 1.5 1.52426346 1.5-.77635684e-15-.0248564876 1.49979404.0248716602 1.5006182zM5.01600071 28.5108885L5.5 28.5160352 1614.93834 45.6301331 1623.94997 45.6302179 1764.53468 45.6302179 1764.83104 45.6302179 1766.03468 45.6302179 1765.43286 45.0283975 1764.83104 44.4265771 1764.53468 44.1302179 1764.53468 44.4265771 1764.53468 45.6302179 1764.53468 45.9265771 1764.83104 45.6302179 1765.43286 45.0283975 1766.03468 44.4265771 1764.83104 44.4265771 1764.53468 44.4265771 1623.94997 44.4265771 1614.95429 44.4265771 5.5 27.515678 4.98428595 27.5102593 4.01575989 27.5000828 4.49999266 27.9894302 5.01600071 28.5108885 5.5 29 5.5 28.5160352 5.5 27.515678 5.5 27 4.98428595 27.5102593 4.49999266 27.9894302 3.98405053 28.4999152 5.01600071 28.5108885z" class="UYroXGxx_157"></path>
      <path stroke-width="2" d="M5.00329322 56.0000169L6 56.0034002 1822.6698 62.1700358 1823.46804 62.1727453 1823.66641 62.1734187 1823.56722 62.0738907 1823.46136 61.9676759 1822.6698 61.1734245 1822.6698 61.9650783 1822.6698 62.1700358 1822.6698 62.9683654 1823.46804 62.1727453 1823.56722 62.0738907 1823.67308 61.9683708 1823.46136 61.9676759 1822.6698 61.9650783 6 56.0032763 5.0032817 56.0000054 6 57 6 56.0034002 6 56.0032763 6 55 4.99660555 55.9999942 5.00329322 56.0000169zM4 84.9970148L1880.04984 79.3881643 1880.32815 79.3873322 1881.05283 79.3851657 1880.69042 79.0238399 1880.33451 78.6689924 1880.04984 78.3851701 1880.04984 78.6699524 1880.04984 79.3881643 1880.04984 79.6665858 1880.32815 79.3873322 1880.69042 79.0238399 1881.04647 78.6665915 1880.33451 78.6689924 1880.04984 78.6699524 4 84.996622 3.003001 84.9999842 4 86 4 84.9970148 4 84.996622 4 84 3.003001 84.9999842 4 84.9970148z" class="UYroXGxx_158"></path>
      <path d="M4.28708882 111.788848L4.5 111.787049 1931.80055 95.50666 1932.29637 95.5024717 1931.80055 95.0024185 1931.80055 95.5065494 1931.80055 95.50666 1931.80055 96.0024185 1932.29637 95.5024717 1931.80055 95.5065494 4.5 111.495835 4.29545862 111.497532 3.99585204 111.500017 4.14566674 111.648594 4.28708882 111.788848 4.5 112 4.5 111.787049 4.5 111.495835 4.5 111.291255 4.29545862 111.497532 4.14566674 111.648594 4.00422347 111.791237 4.28708882 111.788848zM6.06363141 138.570358L6.5 138.563563 1615.99779 113.499939 1623.02422 113.5 1985.21226 112.277341 1985.71058 112.275658 1985.21226 111.77565 1985.21226 112.277316 1985.21226 112.277341 1985.21226 112.77565 1985.71058 112.275658 1985.21226 112.277316 1623.05798 113.486343 1615.95043 113.486997 6.5 138.492171 6.07918335 138.498709 5.99223269 138.50006 6.03570881 138.542866 6.06363141 138.570358 6.5 139 6.5 138.563563 6.5 138.492171 6.5 138.071289 6.07918335 138.498709 6.03570881 138.542866 6.00778522 138.571228 6.06363141 138.570358z" class="UYroXGxx_159"></path>
    </g>
    <g stroke="#FFFFFF" transform="translate(2034 326)">
      <path d="M0.5,12A11.5,11.5 0,1,1 23.5,12A11.5,11.5 0,1,1 0.5,12" class="UYroXGxx_160"></path>
      <path d="M113.5,46A10.5,10.5 0,1,1 134.5,46A10.5,10.5 0,1,1 113.5,46" class="UYroXGxx_161"></path>
      <path d="M168.5,63A10.5,10.5 0,1,1 189.5,63A10.5,10.5 0,1,1 168.5,63" class="UYroXGxx_162"></path>
      <path d="M224.5,80A10.5,10.5 0,1,1 245.5,80A10.5,10.5 0,1,1 224.5,80" class="UYroXGxx_163"></path>
      <path d="M281.5,97A10.5,10.5 0,1,1 302.5,97A10.5,10.5 0,1,1 281.5,97" class="UYroXGxx_164"></path>
      <path d="M56.5,29A11.5,11.5 0,1,1 79.5,29A11.5,11.5 0,1,1 56.5,29" class="UYroXGxx_165"></path>
      <path d="M2.5,12A9.5,9.5 0,1,1 21.5,12A9.5,9.5 0,1,1 2.5,12" class="UYroXGxx_166"></path>
      <path d="M58.5,29A9.5,9.5 0,1,1 77.5,29A9.5,9.5 0,1,1 58.5,29" class="UYroXGxx_167"></path>
      <path d="M114.5,46A9.5,9.5 0,1,1 133.5,46A9.5,9.5 0,1,1 114.5,46" class="UYroXGxx_168"></path>
      <path d="M169.5,63A9.5,9.5 0,1,1 188.5,63A9.5,9.5 0,1,1 169.5,63" class="UYroXGxx_169"></path>
      <path d="M225.5,80A9.5,9.5 0,1,1 244.5,80A9.5,9.5 0,1,1 225.5,80" class="UYroXGxx_170"></path>
      <path d="M282.5,97A9.5,9.5 0,1,1 301.5,97A9.5,9.5 0,1,1 282.5,97" class="UYroXGxx_171"></path>
    </g>
    <g stroke="#FFFFFF" transform="translate(2097 408)">
      <path d="M0.5,20.5 L0.5,8.5 L2,8.5 L2.5,8.5 L2.5,8 L2.5,1.99328744 C2.5,1.17045346 3.17620793,0.5 4.0085302,0.5 L11.9914698,0.5 C12.822647,0.5 13.5,1.17391013 13.5,1.99328744 L13.5,27.0067126 C13.5,27.8295465 12.8237921,28.5 11.9914698,28.5 L4.0085302,28.5 C3.17735298,28.5 2.5,27.8260899 2.5,27.0067126 L2.5,21 L2.5,20.5 L2,20.5 L0.5,20.5 Z" class="UYroXGxx_172"></path>
      <path d="M4.5,14A3.5,3.5 0,1,1 11.5,14A3.5,3.5 0,1,1 4.5,14" class="UYroXGxx_173"></path>
    </g>
  </g>
<style data-made-with="vivus-instant">.UYroXGxx_0{stroke-dasharray:3635 3637;stroke-dashoffset:3636;animation:UYroXGxx_draw 3333ms linear 0ms forwards;}.UYroXGxx_1{stroke-dasharray:2538 2540;stroke-dashoffset:2539;animation:UYroXGxx_draw 3333ms linear 9ms forwards;}.UYroXGxx_2{stroke-dasharray:212 214;stroke-dashoffset:213;animation:UYroXGxx_draw 3333ms linear 19ms forwards;}.UYroXGxx_3{stroke-dasharray:216 218;stroke-dashoffset:217;animation:UYroXGxx_draw 3333ms linear 28ms forwards;}.UYroXGxx_4{stroke-dasharray:220 222;stroke-dashoffset:221;animation:UYroXGxx_draw 3333ms linear 38ms forwards;}.UYroXGxx_5{stroke-dasharray:224 226;stroke-dashoffset:225;animation:UYroXGxx_draw 3333ms linear 48ms forwards;}.UYroXGxx_6{stroke-dasharray:230 232;stroke-dashoffset:231;animation:UYroXGxx_draw 3333ms linear 57ms forwards;}.UYroXGxx_7{stroke-dasharray:234 236;stroke-dashoffset:235;animation:UYroXGxx_draw 3333ms linear 67ms forwards;}.UYroXGxx_8{stroke-dasharray:238 240;stroke-dashoffset:239;animation:UYroXGxx_draw 3333ms linear 77ms forwards;}.UYroXGxx_9{stroke-dasharray:240 242;stroke-dashoffset:241;animation:UYroXGxx_draw 3333ms linear 86ms forwards;}.UYroXGxx_10{stroke-dasharray:244 246;stroke-dashoffset:245;animation:UYroXGxx_draw 3333ms linear 96ms forwards;}.UYroXGxx_11{stroke-dasharray:248 250;stroke-dashoffset:249;animation:UYroXGxx_draw 3333ms linear 105ms forwards;}.UYroXGxx_12{stroke-dasharray:252 254;stroke-dashoffset:253;animation:UYroXGxx_draw 3333ms linear 115ms forwards;}.UYroXGxx_13{stroke-dasharray:254 256;stroke-dashoffset:255;animation:UYroXGxx_draw 3333ms linear 125ms forwards;}.UYroXGxx_14{stroke-dasharray:254 256;stroke-dashoffset:255;animation:UYroXGxx_draw 3333ms linear 134ms forwards;}.UYroXGxx_15{stroke-dasharray:258 260;stroke-dashoffset:259;animation:UYroXGxx_draw 3333ms linear 144ms forwards;}.UYroXGxx_16{stroke-dasharray:260 262;stroke-dashoffset:261;animation:UYroXGxx_draw 3333ms linear 154ms forwards;}.UYroXGxx_17{stroke-dasharray:264 266;stroke-dashoffset:265;animation:UYroXGxx_draw 3333ms linear 163ms forwards;}.UYroXGxx_18{stroke-dasharray:268 270;stroke-dashoffset:269;animation:UYroXGxx_draw 3333ms linear 173ms forwards;}.UYroXGxx_19{stroke-dasharray:270 272;stroke-dashoffset:271;animation:UYroXGxx_draw 3333ms linear 183ms forwards;}.UYroXGxx_20{stroke-dasharray:274 276;stroke-dashoffset:275;animation:UYroXGxx_draw 3333ms linear 192ms forwards;}.UYroXGxx_21{stroke-dasharray:274 276;stroke-dashoffset:275;animation:UYroXGxx_draw 3333ms linear 202ms forwards;}.UYroXGxx_22{stroke-dasharray:272 274;stroke-dashoffset:273;animation:UYroXGxx_draw 3333ms linear 211ms forwards;}.UYroXGxx_23{stroke-dasharray:1118 1120;stroke-dashoffset:1119;animation:UYroXGxx_draw 3333ms linear 221ms forwards;}.UYroXGxx_24{stroke-dasharray:195 197;stroke-dashoffset:196;animation:UYroXGxx_draw 3333ms linear 231ms forwards;}.UYroXGxx_25{stroke-dasharray:2388 2390;stroke-dashoffset:2389;animation:UYroXGxx_draw 3333ms linear 240ms forwards;}.UYroXGxx_26{stroke-dasharray:222 224;stroke-dashoffset:223;animation:UYroXGxx_draw 3333ms linear 250ms forwards;}.UYroXGxx_27{stroke-dasharray:847 849;stroke-dashoffset:848;animation:UYroXGxx_draw 3333ms linear 260ms forwards;}.UYroXGxx_28{stroke-dasharray:400 402;stroke-dashoffset:401;animation:UYroXGxx_draw 3333ms linear 269ms forwards;}.UYroXGxx_29{stroke-dasharray:41 43;stroke-dashoffset:42;animation:UYroXGxx_draw 3333ms linear 279ms forwards;}.UYroXGxx_30{stroke-dasharray:41 43;stroke-dashoffset:42;animation:UYroXGxx_draw 3333ms linear 289ms forwards;}.UYroXGxx_31{stroke-dasharray:41 43;stroke-dashoffset:42;animation:UYroXGxx_draw 3333ms linear 298ms forwards;}.UYroXGxx_32{stroke-dasharray:41 43;stroke-dashoffset:42;animation:UYroXGxx_draw 3333ms linear 308ms forwards;}.UYroXGxx_33{stroke-dasharray:41 43;stroke-dashoffset:42;animation:UYroXGxx_draw 3333ms linear 317ms forwards;}.UYroXGxx_34{stroke-dasharray:41 43;stroke-dashoffset:42;animation:UYroXGxx_draw 3333ms linear 327ms forwards;}.UYroXGxx_35{stroke-dasharray:399 401;stroke-dashoffset:400;animation:UYroXGxx_draw 3333ms linear 337ms forwards;}.UYroXGxx_36{stroke-dasharray:41 43;stroke-dashoffset:42;animation:UYroXGxx_draw 3333ms linear 346ms forwards;}.UYroXGxx_37{stroke-dasharray:41 43;stroke-dashoffset:42;animation:UYroXGxx_draw 3333ms linear 356ms forwards;}.UYroXGxx_38{stroke-dasharray:41 43;stroke-dashoffset:42;animation:UYroXGxx_draw 3333ms linear 366ms forwards;}.UYroXGxx_39{stroke-dasharray:41 43;stroke-dashoffset:42;animation:UYroXGxx_draw 3333ms linear 375ms forwards;}.UYroXGxx_40{stroke-dasharray:41 43;stroke-dashoffset:42;animation:UYroXGxx_draw 3333ms linear 385ms forwards;}.UYroXGxx_41{stroke-dasharray:41 43;stroke-dashoffset:42;animation:UYroXGxx_draw 3333ms linear 394ms forwards;}.UYroXGxx_42{stroke-dasharray:396 398;stroke-dashoffset:397;animation:UYroXGxx_draw 3333ms linear 404ms forwards;}.UYroXGxx_43{stroke-dasharray:41 43;stroke-dashoffset:42;animation:UYroXGxx_draw 3333ms linear 414ms forwards;}.UYroXGxx_44{stroke-dasharray:41 43;stroke-dashoffset:42;animation:UYroXGxx_draw 3333ms linear 423ms forwards;}.UYroXGxx_45{stroke-dasharray:41 43;stroke-dashoffset:42;animation:UYroXGxx_draw 3333ms linear 433ms forwards;}.UYroXGxx_46{stroke-dasharray:41 43;stroke-dashoffset:42;animation:UYroXGxx_draw 3333ms linear 443ms forwards;}.UYroXGxx_47{stroke-dasharray:41 43;stroke-dashoffset:42;animation:UYroXGxx_draw 3333ms linear 452ms forwards;}.UYroXGxx_48{stroke-dasharray:41 43;stroke-dashoffset:42;animation:UYroXGxx_draw 3333ms linear 462ms forwards;}.UYroXGxx_49{stroke-dasharray:455 457;stroke-dashoffset:456;animation:UYroXGxx_draw 3333ms linear 472ms forwards;}.UYroXGxx_50{stroke-dasharray:293 295;stroke-dashoffset:294;animation:UYroXGxx_draw 3333ms linear 481ms forwards;}.UYroXGxx_51{stroke-dasharray:41 43;stroke-dashoffset:42;animation:UYroXGxx_draw 3333ms linear 491ms forwards;}.UYroXGxx_52{stroke-dasharray:41 43;stroke-dashoffset:42;animation:UYroXGxx_draw 3333ms linear 500ms forwards;}.UYroXGxx_53{stroke-dasharray:95 97;stroke-dashoffset:96;animation:UYroXGxx_draw 3333ms linear 510ms forwards;}.UYroXGxx_54{stroke-dasharray:31 33;stroke-dashoffset:32;animation:UYroXGxx_draw 3333ms linear 520ms forwards;}.UYroXGxx_55{stroke-dasharray:53 55;stroke-dashoffset:54;animation:UYroXGxx_draw 3333ms linear 529ms forwards;}.UYroXGxx_56{stroke-dasharray:586 588;stroke-dashoffset:587;animation:UYroXGxx_draw 3333ms linear 539ms forwards;}.UYroXGxx_57{stroke-dasharray:38 40;stroke-dashoffset:39;animation:UYroXGxx_draw 3333ms linear 549ms forwards;}.UYroXGxx_58{stroke-dasharray:38 40;stroke-dashoffset:39;animation:UYroXGxx_draw 3333ms linear 558ms forwards;}.UYroXGxx_59{stroke-dasharray:38 40;stroke-dashoffset:39;animation:UYroXGxx_draw 3333ms linear 568ms forwards;}.UYroXGxx_60{stroke-dasharray:38 40;stroke-dashoffset:39;animation:UYroXGxx_draw 3333ms linear 578ms forwards;}.UYroXGxx_61{stroke-dasharray:38 40;stroke-dashoffset:39;animation:UYroXGxx_draw 3333ms linear 587ms forwards;}.UYroXGxx_62{stroke-dasharray:38 40;stroke-dashoffset:39;animation:UYroXGxx_draw 3333ms linear 597ms forwards;}.UYroXGxx_63{stroke-dasharray:366 368;stroke-dashoffset:367;animation:UYroXGxx_draw 3333ms linear 606ms forwards;}.UYroXGxx_64{stroke-dasharray:48 50;stroke-dashoffset:49;animation:UYroXGxx_draw 3333ms linear 616ms forwards;}.UYroXGxx_65{stroke-dasharray:48 50;stroke-dashoffset:49;animation:UYroXGxx_draw 3333ms linear 626ms forwards;}.UYroXGxx_66{stroke-dasharray:134 136;stroke-dashoffset:135;animation:UYroXGxx_draw 3333ms linear 635ms forwards;}.UYroXGxx_67{stroke-dasharray:70 72;stroke-dashoffset:71;animation:UYroXGxx_draw 3333ms linear 645ms forwards;}.UYroXGxx_68{stroke-dasharray:38 40;stroke-dashoffset:39;animation:UYroXGxx_draw 3333ms linear 655ms forwards;}.UYroXGxx_69{stroke-dasharray:707 709;stroke-dashoffset:708;animation:UYroXGxx_draw 3333ms linear 664ms forwards;}.UYroXGxx_70{stroke-dasharray:152 154;stroke-dashoffset:153;animation:UYroXGxx_draw 3333ms linear 674ms forwards;}.UYroXGxx_71{stroke-dasharray:72 74;stroke-dashoffset:73;animation:UYroXGxx_draw 3333ms linear 684ms forwards;}.UYroXGxx_72{stroke-dasharray:72 74;stroke-dashoffset:73;animation:UYroXGxx_draw 3333ms linear 693ms forwards;}.UYroXGxx_73{stroke-dasharray:19 21;stroke-dashoffset:20;animation:UYroXGxx_draw 3333ms linear 703ms forwards;}.UYroXGxx_74{stroke-dasharray:19 21;stroke-dashoffset:20;animation:UYroXGxx_draw 3333ms linear 712ms forwards;}.UYroXGxx_75{stroke-dasharray:7 9;stroke-dashoffset:8;animation:UYroXGxx_draw 3333ms linear 722ms forwards;}.UYroXGxx_76{stroke-dasharray:7 9;stroke-dashoffset:8;animation:UYroXGxx_draw 3333ms linear 732ms forwards;}.UYroXGxx_77{stroke-dasharray:30 32;stroke-dashoffset:31;animation:UYroXGxx_draw 3333ms linear 741ms forwards;}.UYroXGxx_78{stroke-dasharray:152 154;stroke-dashoffset:153;animation:UYroXGxx_draw 3333ms linear 751ms forwards;}.UYroXGxx_79{stroke-dasharray:72 74;stroke-dashoffset:73;animation:UYroXGxx_draw 3333ms linear 761ms forwards;}.UYroXGxx_80{stroke-dasharray:72 74;stroke-dashoffset:73;animation:UYroXGxx_draw 3333ms linear 770ms forwards;}.UYroXGxx_81{stroke-dasharray:19 21;stroke-dashoffset:20;animation:UYroXGxx_draw 3333ms linear 780ms forwards;}.UYroXGxx_82{stroke-dasharray:19 21;stroke-dashoffset:20;animation:UYroXGxx_draw 3333ms linear 789ms forwards;}.UYroXGxx_83{stroke-dasharray:7 9;stroke-dashoffset:8;animation:UYroXGxx_draw 3333ms linear 799ms forwards;}.UYroXGxx_84{stroke-dasharray:7 9;stroke-dashoffset:8;animation:UYroXGxx_draw 3333ms linear 809ms forwards;}.UYroXGxx_85{stroke-dasharray:30 32;stroke-dashoffset:31;animation:UYroXGxx_draw 3333ms linear 818ms forwards;}.UYroXGxx_86{stroke-dasharray:152 154;stroke-dashoffset:153;animation:UYroXGxx_draw 3333ms linear 828ms forwards;}.UYroXGxx_87{stroke-dasharray:72 74;stroke-dashoffset:73;animation:UYroXGxx_draw 3333ms linear 838ms forwards;}.UYroXGxx_88{stroke-dasharray:72 74;stroke-dashoffset:73;animation:UYroXGxx_draw 3333ms linear 847ms forwards;}.UYroXGxx_89{stroke-dasharray:19 21;stroke-dashoffset:20;animation:UYroXGxx_draw 3333ms linear 857ms forwards;}.UYroXGxx_90{stroke-dasharray:19 21;stroke-dashoffset:20;animation:UYroXGxx_draw 3333ms linear 867ms forwards;}.UYroXGxx_91{stroke-dasharray:7 9;stroke-dashoffset:8;animation:UYroXGxx_draw 3333ms linear 876ms forwards;}.UYroXGxx_92{stroke-dasharray:7 9;stroke-dashoffset:8;animation:UYroXGxx_draw 3333ms linear 886ms forwards;}.UYroXGxx_93{stroke-dasharray:30 32;stroke-dashoffset:31;animation:UYroXGxx_draw 3333ms linear 895ms forwards;}.UYroXGxx_94{stroke-dasharray:152 154;stroke-dashoffset:153;animation:UYroXGxx_draw 3333ms linear 905ms forwards;}.UYroXGxx_95{stroke-dasharray:72 74;stroke-dashoffset:73;animation:UYroXGxx_draw 3333ms linear 915ms forwards;}.UYroXGxx_96{stroke-dasharray:72 74;stroke-dashoffset:73;animation:UYroXGxx_draw 3333ms linear 924ms forwards;}.UYroXGxx_97{stroke-dasharray:19 21;stroke-dashoffset:20;animation:UYroXGxx_draw 3333ms linear 934ms forwards;}.UYroXGxx_98{stroke-dasharray:19 21;stroke-dashoffset:20;animation:UYroXGxx_draw 3333ms linear 944ms forwards;}.UYroXGxx_99{stroke-dasharray:7 9;stroke-dashoffset:8;animation:UYroXGxx_draw 3333ms linear 953ms forwards;}.UYroXGxx_100{stroke-dasharray:7 9;stroke-dashoffset:8;animation:UYroXGxx_draw 3333ms linear 963ms forwards;}.UYroXGxx_101{stroke-dasharray:30 32;stroke-dashoffset:31;animation:UYroXGxx_draw 3333ms linear 973ms forwards;}.UYroXGxx_102{stroke-dasharray:152 154;stroke-dashoffset:153;animation:UYroXGxx_draw 3333ms linear 982ms forwards;}.UYroXGxx_103{stroke-dasharray:72 74;stroke-dashoffset:73;animation:UYroXGxx_draw 3333ms linear 992ms forwards;}.UYroXGxx_104{stroke-dasharray:72 74;stroke-dashoffset:73;animation:UYroXGxx_draw 3333ms linear 1001ms forwards;}.UYroXGxx_105{stroke-dasharray:19 21;stroke-dashoffset:20;animation:UYroXGxx_draw 3333ms linear 1011ms forwards;}.UYroXGxx_106{stroke-dasharray:19 21;stroke-dashoffset:20;animation:UYroXGxx_draw 3333ms linear 1021ms forwards;}.UYroXGxx_107{stroke-dasharray:7 9;stroke-dashoffset:8;animation:UYroXGxx_draw 3333ms linear 1030ms forwards;}.UYroXGxx_108{stroke-dasharray:7 9;stroke-dashoffset:8;animation:UYroXGxx_draw 3333ms linear 1040ms forwards;}.UYroXGxx_109{stroke-dasharray:30 32;stroke-dashoffset:31;animation:UYroXGxx_draw 3333ms linear 1050ms forwards;}.UYroXGxx_110{stroke-dasharray:152 154;stroke-dashoffset:153;animation:UYroXGxx_draw 3333ms linear 1059ms forwards;}.UYroXGxx_111{stroke-dasharray:72 74;stroke-dashoffset:73;animation:UYroXGxx_draw 3333ms linear 1069ms forwards;}.UYroXGxx_112{stroke-dasharray:72 74;stroke-dashoffset:73;animation:UYroXGxx_draw 3333ms linear 1078ms forwards;}.UYroXGxx_113{stroke-dasharray:19 21;stroke-dashoffset:20;animation:UYroXGxx_draw 3333ms linear 1088ms forwards;}.UYroXGxx_114{stroke-dasharray:19 21;stroke-dashoffset:20;animation:UYroXGxx_draw 3333ms linear 1098ms forwards;}.UYroXGxx_115{stroke-dasharray:7 9;stroke-dashoffset:8;animation:UYroXGxx_draw 3333ms linear 1107ms forwards;}.UYroXGxx_116{stroke-dasharray:7 9;stroke-dashoffset:8;animation:UYroXGxx_draw 3333ms linear 1117ms forwards;}.UYroXGxx_117{stroke-dasharray:30 32;stroke-dashoffset:31;animation:UYroXGxx_draw 3333ms linear 1127ms forwards;}.UYroXGxx_118{stroke-dasharray:192 194;stroke-dashoffset:193;animation:UYroXGxx_draw 3333ms linear 1136ms forwards;}.UYroXGxx_119{stroke-dasharray:132 134;stroke-dashoffset:133;animation:UYroXGxx_draw 3333ms linear 1146ms forwards;}.UYroXGxx_120{stroke-dasharray:192 194;stroke-dashoffset:193;animation:UYroXGxx_draw 3333ms linear 1156ms forwards;}.UYroXGxx_121{stroke-dasharray:132 134;stroke-dashoffset:133;animation:UYroXGxx_draw 3333ms linear 1165ms forwards;}.UYroXGxx_122{stroke-dasharray:192 194;stroke-dashoffset:193;animation:UYroXGxx_draw 3333ms linear 1175ms forwards;}.UYroXGxx_123{stroke-dasharray:132 134;stroke-dashoffset:133;animation:UYroXGxx_draw 3333ms linear 1184ms forwards;}.UYroXGxx_124{stroke-dasharray:41 43;stroke-dashoffset:42;animation:UYroXGxx_draw 3333ms linear 1194ms forwards;}.UYroXGxx_125{stroke-dasharray:41 43;stroke-dashoffset:42;animation:UYroXGxx_draw 3333ms linear 1204ms forwards;}.UYroXGxx_126{stroke-dasharray:41 43;stroke-dashoffset:42;animation:UYroXGxx_draw 3333ms linear 1213ms forwards;}.UYroXGxx_127{stroke-dasharray:41 43;stroke-dashoffset:42;animation:UYroXGxx_draw 3333ms linear 1223ms forwards;}.UYroXGxx_128{stroke-dasharray:41 43;stroke-dashoffset:42;animation:UYroXGxx_draw 3333ms linear 1233ms forwards;}.UYroXGxx_129{stroke-dasharray:41 43;stroke-dashoffset:42;animation:UYroXGxx_draw 3333ms linear 1242ms forwards;}.UYroXGxx_130{stroke-dasharray:41 43;stroke-dashoffset:42;animation:UYroXGxx_draw 3333ms linear 1252ms forwards;}.UYroXGxx_131{stroke-dasharray:41 43;stroke-dashoffset:42;animation:UYroXGxx_draw 3333ms linear 1262ms forwards;}.UYroXGxx_132{stroke-dasharray:41 43;stroke-dashoffset:42;animation:UYroXGxx_draw 3333ms linear 1271ms forwards;}.UYroXGxx_133{stroke-dasharray:41 43;stroke-dashoffset:42;animation:UYroXGxx_draw 3333ms linear 1281ms forwards;}.UYroXGxx_134{stroke-dasharray:41 43;stroke-dashoffset:42;animation:UYroXGxx_draw 3333ms linear 1290ms forwards;}.UYroXGxx_135{stroke-dasharray:48 50;stroke-dashoffset:49;animation:UYroXGxx_draw 3333ms linear 1300ms forwards;}.UYroXGxx_136{stroke-dasharray:48 50;stroke-dashoffset:49;animation:UYroXGxx_draw 3333ms linear 1310ms forwards;}.UYroXGxx_137{stroke-dasharray:48 50;stroke-dashoffset:49;animation:UYroXGxx_draw 3333ms linear 1319ms forwards;}.UYroXGxx_138{stroke-dasharray:48 50;stroke-dashoffset:49;animation:UYroXGxx_draw 3333ms linear 1329ms forwards;}.UYroXGxx_139{stroke-dasharray:48 50;stroke-dashoffset:49;animation:UYroXGxx_draw 3333ms linear 1339ms forwards;}.UYroXGxx_140{stroke-dasharray:48 50;stroke-dashoffset:49;animation:UYroXGxx_draw 3333ms linear 1348ms forwards;}.UYroXGxx_141{stroke-dasharray:48 50;stroke-dashoffset:49;animation:UYroXGxx_draw 3333ms linear 1358ms forwards;}.UYroXGxx_142{stroke-dasharray:48 50;stroke-dashoffset:49;animation:UYroXGxx_draw 3333ms linear 1368ms forwards;}.UYroXGxx_143{stroke-dasharray:48 50;stroke-dashoffset:49;animation:UYroXGxx_draw 3333ms linear 1377ms forwards;}.UYroXGxx_144{stroke-dasharray:48 50;stroke-dashoffset:49;animation:UYroXGxx_draw 3333ms linear 1387ms forwards;}.UYroXGxx_145{stroke-dasharray:48 50;stroke-dashoffset:49;animation:UYroXGxx_draw 3333ms linear 1396ms forwards;}.UYroXGxx_146{stroke-dasharray:48 50;stroke-dashoffset:49;animation:UYroXGxx_draw 3333ms linear 1406ms forwards;}.UYroXGxx_147{stroke-dasharray:48 50;stroke-dashoffset:49;animation:UYroXGxx_draw 3333ms linear 1416ms forwards;}.UYroXGxx_148{stroke-dasharray:48 50;stroke-dashoffset:49;animation:UYroXGxx_draw 3333ms linear 1425ms forwards;}.UYroXGxx_149{stroke-dasharray:48 50;stroke-dashoffset:49;animation:UYroXGxx_draw 3333ms linear 1435ms forwards;}.UYroXGxx_150{stroke-dasharray:48 50;stroke-dashoffset:49;animation:UYroXGxx_draw 3333ms linear 1445ms forwards;}.UYroXGxx_151{stroke-dasharray:34 36;stroke-dashoffset:35;animation:UYroXGxx_draw 3333ms linear 1454ms forwards;}.UYroXGxx_152{stroke-dasharray:40 42;stroke-dashoffset:41;animation:UYroXGxx_draw 3333ms linear 1464ms forwards;}.UYroXGxx_153{stroke-dasharray:44 46;stroke-dashoffset:45;animation:UYroXGxx_draw 3333ms linear 1473ms forwards;}.UYroXGxx_154{stroke-dasharray:36 38;stroke-dashoffset:37;animation:UYroXGxx_draw 3333ms linear 1483ms forwards;}.UYroXGxx_155{stroke-dasharray:38 40;stroke-dashoffset:39;animation:UYroXGxx_draw 3333ms linear 1493ms forwards;}.UYroXGxx_156{stroke-dasharray:44 46;stroke-dashoffset:45;animation:UYroXGxx_draw 3333ms linear 1502ms forwards;}.UYroXGxx_157{stroke-dasharray:6970 6972;stroke-dashoffset:6971;animation:UYroXGxx_draw 3333ms linear 1512ms forwards;}.UYroXGxx_158{stroke-dasharray:7412 7414;stroke-dashoffset:7413;animation:UYroXGxx_draw 3333ms linear 1522ms forwards;}.UYroXGxx_159{stroke-dasharray:7826 7828;stroke-dashoffset:7827;animation:UYroXGxx_draw 3333ms linear 1531ms forwards;}.UYroXGxx_160{stroke-dasharray:73 75;stroke-dashoffset:74;animation:UYroXGxx_draw 3333ms linear 1541ms forwards;}.UYroXGxx_161{stroke-dasharray:66 68;stroke-dashoffset:67;animation:UYroXGxx_draw 3333ms linear 1551ms forwards;}.UYroXGxx_162{stroke-dasharray:66 68;stroke-dashoffset:67;animation:UYroXGxx_draw 3333ms linear 1560ms forwards;}.UYroXGxx_163{stroke-dasharray:66 68;stroke-dashoffset:67;animation:UYroXGxx_draw 3333ms linear 1570ms forwards;}.UYroXGxx_164{stroke-dasharray:66 68;stroke-dashoffset:67;animation:UYroXGxx_draw 3333ms linear 1579ms forwards;}.UYroXGxx_165{stroke-dasharray:73 75;stroke-dashoffset:74;animation:UYroXGxx_draw 3333ms linear 1589ms forwards;}.UYroXGxx_166{stroke-dasharray:60 62;stroke-dashoffset:61;animation:UYroXGxx_draw 3333ms linear 1599ms forwards;}.UYroXGxx_167{stroke-dasharray:60 62;stroke-dashoffset:61;animation:UYroXGxx_draw 3333ms linear 1608ms forwards;}.UYroXGxx_168{stroke-dasharray:60 62;stroke-dashoffset:61;animation:UYroXGxx_draw 3333ms linear 1618ms forwards;}.UYroXGxx_169{stroke-dasharray:60 62;stroke-dashoffset:61;animation:UYroXGxx_draw 3333ms linear 1628ms forwards;}.UYroXGxx_170{stroke-dasharray:60 62;stroke-dashoffset:61;animation:UYroXGxx_draw 3333ms linear 1637ms forwards;}.UYroXGxx_171{stroke-dasharray:60 62;stroke-dashoffset:61;animation:UYroXGxx_draw 3333ms linear 1647ms forwards;}.UYroXGxx_172{stroke-dasharray:80 82;stroke-dashoffset:81;animation:UYroXGxx_draw 3333ms linear 1657ms forwards;}.UYroXGxx_173{stroke-dasharray:22 24;stroke-dashoffset:23;animation:UYroXGxx_draw 3333ms linear 1666ms forwards;}@keyframes UYroXGxx_draw{100%{stroke-dashoffset:0;}}@keyframes UYroXGxx_fade{0%{stroke-opacity:1;}95.65217391304348%{stroke-opacity:1;}100%{stroke-opacity:0;}}</style></svg>
