<?xml version="1.0" encoding="UTF-8" standalone="no"?>
<svg width="460px" height="384px" viewBox="0 0 460 384" version="1.1" xmlns="http://www.w3.org/2000/svg" xmlns:xlink="http://www.w3.org/1999/xlink" xmlns:sketch="http://www.bohemiancoding.com/sketch/ns">
    <!-- Generator: Sketch 3.1 (8751) - http://www.bohemiancoding.com/sketch -->
    <title>Slice 2</title>
    <desc>Created with Sketch.</desc>
    <defs></defs>
    <g id="Page-1" stroke="none" stroke-width="1" fill="none" fill-rule="evenodd" sketch:type="MSPage">
        <g id="Wand-2" sketch:type="MSLayerGroup" transform="translate(21.000000, 34.000000)">
            <path d="M129,144.5 L0.35546875,208.822266 L129,273.144531 L129,255.144531 L36.3554688,208.822266 L129,162.5 L129,144.5 L129,144.5 Z" id="Opening-Bracket" fill="#5B236B" sketch:type="MSShapeGroup"></path>
            <path d="M423,144.5 L294.355469,208.822266 L423,273.144531 L423,255.144531 L330.355469,208.822266 L423,162.5 L423,144.5 L423,144.5 Z" id="Closing-Bracket" fill="#5B236B" sketch:type="MSShapeGroup" transform="translate(358.855469, 209.000000) rotate(-180.000000) translate(-358.855469, -209.000000) "></path>
            <g id="Wand" transform="translate(209.941406, 208.886719) rotate(-345.000000) translate(-209.941406, -208.886719) translate(198.941406, 119.886719)" stroke="#5B236B" sketch:type="MSShapeGroup">
                <rect id="Rectangle-2" stroke-width="8" x="-3.69482223e-13" y="1.20792265e-13" width="22" height="178"></rect>
                <rect id="Rectangle-2" fill="#5B236B" x="1.13686838e-13" y="25" width="22" height="153"></rect>
            </g>
            <polygon id="Star-1" fill="#5B236B" sketch:type="MSShapeGroup" points="217.657534 73.4614459 205.51534 79.8127386 207.834293 66.3604847 198.011052 56.8335456 211.586437 54.8708882 217.657534 42.6316233 223.728631 54.8708882 237.304017 56.8335456 227.480776 66.3604847 229.799728 79.8127386 "></polygon>
            <polygon id="Star-1" fill="#5B236B" sketch:type="MSShapeGroup" points="280.342466 30.9375527 268.200272 37.2888454 270.519224 23.8365915 260.695983 14.3096524 274.271369 12.346995 280.342466 0.107730118 286.413563 12.346995 299.988948 14.3096524 290.165707 23.8365915 292.48466 37.2888454 "></polygon>
            <polygon id="Star-1" fill="#5B236B" sketch:type="MSShapeGroup" points="280.342466 94.7233925 268.200272 101.074685 270.519224 87.6224313 260.695983 78.0954922 274.271369 76.1328348 280.342466 63.8935699 286.413563 76.1328348 299.988948 78.0954922 290.165707 87.6224313 292.48466 101.074685 "></polygon>
        </g>
    </g>
</svg>