<?xml version="1.0" encoding="UTF-8"?>
<svg width="300px" height="160px" viewBox="0 0 300 160" version="1.1" xmlns="http://www.w3.org/2000/svg" xmlns:xlink="http://www.w3.org/1999/xlink">
    <!-- Generator: Sketch 39.1 (31720) - http://www.bohemiancoding.com/sketch -->
    <title>Awethor</title>
    <desc>Created with Sketch.</desc>
    <defs></defs>
    <g id="Page-1" stroke="none" stroke-width="1" fill="none" fill-rule="evenodd">
        <g id="Project-Icons">
            <g id="Awethor">
                <rect id="Rectangle-8" fill="#ddd" x="0" y="0" width="300" height="160"></rect>
                <g id="Group" transform="translate(89.000000, 19.000000)">
                    <path d="M61,122 C94.6893697,122 122,94.6893697 122,61 C122,27.3106303 94.6893697,0 61,0 C27.3106303,0 0,27.3106303 0,61 C0,94.6893697 27.3106303,122 61,122 Z" id="Oval" fill="#333333"></path>
                    <path d="M91.0033011,93.8089789 L87.0162852,93.8089789 L80.6128961,84.9288072 C79.0422457,86.3383653 77.3810057,87.6572892 75.6291263,88.8856184 C73.877247,90.1139476 72.0347808,91.1811684 70.1016725,92.0873129 C68.1685643,92.9934574 66.1851444,93.708294 64.1513534,94.2318442 C62.1175625,94.7553943 60.0535976,95.0171655 57.959397,95.0171655 C53.408538,95.0171655 49.1295865,94.2519883 45.1224142,92.7216109 C41.1152418,91.1912335 37.6115357,88.9661788 34.6111906,86.0463798 C31.6108455,83.1265809 29.244837,79.5523979 27.5130942,75.3237236 C25.7813514,71.0950493 24.915493,66.2824874 24.915493,60.8858935 C24.915493,55.8517574 25.7813514,51.2304898 27.5130942,47.021952 C29.244837,42.8134143 31.6108455,39.1989588 34.6111906,36.1784771 C37.6115357,33.1579955 41.1152418,30.8121232 45.1224142,29.1407901 C49.1295865,27.4694569 53.408538,26.6338028 57.959397,26.6338028 C60.0535976,26.6338028 62.1276306,26.895574 64.1815581,27.4191241 C66.2354856,27.9426743 68.2289736,28.667579 70.1620819,29.59386 C72.0951901,30.5201411 73.9376563,31.6074982 75.6895357,32.8559639 C77.441415,34.1044297 79.0825188,35.4535579 80.6128961,36.9033891 L87.0162852,29.231404 L91.0033011,29.231404 L91.0033011,93.8089789 Z M74.390735,60.8858935 C74.390735,58.6306005 73.9578058,56.4458182 73.0919344,54.3314811 C72.226063,52.2171439 71.0480928,50.3444734 69.5579886,48.7134133 C68.0678843,47.0823532 66.3260993,45.7734975 64.3325814,44.7868068 C62.3390635,43.8001161 60.21469,43.3067782 57.959397,43.3067782 C55.704104,43.3067782 53.5797305,43.6893668 51.5862126,44.4545555 C49.5926947,45.2197441 47.8609779,46.3473737 46.3910101,47.837478 C44.9210424,49.3275823 43.7632085,51.1700484 42.9174736,53.3649318 C42.0717387,55.5598151 41.6488776,58.0667773 41.6488776,60.8858935 C41.6488776,63.7050097 42.0717387,66.2119719 42.9174736,68.4068552 C43.7632085,70.6017385 44.9210424,72.4442047 46.3910101,73.934309 C47.8609779,75.4244133 49.5926947,76.5520428 51.5862126,77.3172315 C53.5797305,78.0824202 55.704104,78.4650088 57.959397,78.4650088 C60.21469,78.4650088 62.3390635,77.9716709 64.3325814,76.9849802 C66.3260993,75.9982895 68.0678843,74.6894338 69.5579886,73.0583737 C71.0480928,71.4273136 72.226063,69.5546431 73.0919344,67.4403059 C73.9578058,65.3259687 74.390735,63.1411865 74.390735,60.8858935 L74.390735,60.8858935 Z" id="a" fill="#EEEEEE"></path>
                </g>
            </g>
        </g>
    </g>
</svg>