<?xml version="1.0" encoding="UTF-8" standalone="no"?>
<svg width="100px" height="100px" viewBox="0 0 100 100" version="1.1" xmlns="http://www.w3.org/2000/svg" xmlns:xlink="http://www.w3.org/1999/xlink" xmlns:sketch="http://www.bohemiancoding.com/sketch/ns">
    <!-- Generator: Sketch 3.1 (8751) - http://www.bohemiancoding.com/sketch -->
    <title>Slice 2</title>
    <desc>Created with Sketch.</desc>
    <defs></defs>
    <g id="Page-1" stroke="none" stroke-width="1" fill="none" fill-rule="evenodd" sketch:type="MSPage">
        <path d="M55,43.5508189 L55,57.36836 C55,60.8837453 54.0747935,63.746669 52.2243528,65.9572169 C51.1603494,67.2313522 49.807235,68.2445048 48.1649688,68.9967051 C46.5227027,69.7489055 44.8380559,70.125 43.1109779,70.125 C39.6722423,70.125 36.773262,68.9736902 34.4139501,66.6710361 C32.0546383,64.368382 30.875,61.5438353 30.875,58.1973114 C30.875,54.9582446 32.0469282,52.1567241 34.3908198,49.7926659 C36.7347113,47.4286077 39.5103307,46.2465963 42.7177613,46.2465963 C43.2266325,46.2465963 43.9976379,46.2926487 45.0308006,46.3847548 L45.0308006,55.8716423 C44.321465,55.3190053 43.61214,55.042691 42.9028044,55.042691 C42.0084247,55.042691 41.2412744,55.3688954 40.6013303,56.0213141 C39.9613862,56.6737328 39.641419,57.4604611 39.641419,58.3815228 C39.641419,59.2718823 39.9729513,60.0355845 40.6360259,60.6726521 C41.2991005,61.3097198 42.093236,61.6282488 43.0184564,61.6282488 C45.2389852,61.6282488 46.349233,60.1008445 46.349233,57.0459901 L46.349233,42.625 L46.3974053,42.625 C46.5487195,39.5517575 47.4664598,37.0155714 49.1506472,35.0163776 C50.2146506,33.7503148 51.567765,32.7435811 53.2100312,31.9961464 C54.8522973,31.2487117 56.5369441,30.875 58.2640221,30.875 C61.7027577,30.875 64.601738,32.0190155 66.9610499,34.3070809 C69.3203617,36.5951463 70.5,39.4017978 70.5,42.7271195 C70.5,45.9609185 69.3280718,48.7523164 66.9841802,51.1013969 C64.6402887,53.4504774 61.8646693,54.625 58.6572387,54.625 C58.1329472,54.625 57.3619418,54.5716126 56.3441994,54.4648362 L56.3441994,45.0380539 C57.053535,45.6024434 57.76286,45.8846339 58.4721956,45.8846339 C59.3665753,45.8846339 60.1337256,45.5566828 60.7736697,44.9007707 C61.4136138,44.2448586 61.733581,43.4669281 61.733581,42.5669557 C61.733581,41.6669833 61.4020487,40.9004929 60.7389741,40.2674615 C60.0758995,39.63443 59.281764,39.3179191 58.3565436,39.3179191 C56.1360148,39.3179191 55.025767,40.5153188 55.025767,43.5508189 C55.025767,43.5508189 55.025767,40.8356464 55.025767,43.8711464 L55.025767,43.5508189 L55,43.5508189 L55,43.5508189 Z M50.5,89 C71.7629639,89 89,71.7629639 89,50.5 C89,29.2370361 71.7629639,12 50.5,12 C29.2370361,12 12,29.2370361 12,50.5 C12,71.7629639 29.2370361,89 50.5,89 L50.5,89 Z" id="Oval-4" fill="#333333" sketch:type="MSShapeGroup"></path>
    </g>
</svg>