<?xml version="1.0" encoding="UTF-8"?>
<svg width="300px" height="160px" viewBox="0 0 300 160" version="1.1" xmlns="http://www.w3.org/2000/svg" xmlns:xlink="http://www.w3.org/1999/xlink">
    <!-- Generator: Sketch 39.1 (31720) - http://www.bohemiancoding.com/sketch -->
    <title>Group 2</title>
    <desc>Created with Sketch.</desc>
    <defs></defs>
    <g id="Page-1" stroke="none" stroke-width="1" fill="none" fill-rule="evenodd">
        <g id="Group-2">
            <rect id="Rectangle-8" fill="#7A866E" x="0" y="0" width="300" height="160"></rect>
            <g id="Group" transform="translate(83.000000, 54.000000)">
                <path d="M0,0 L38,0 L38,16.0493827 L0,16.0493827 L0,0 Z M3.33333333,6.41975309 L10,6.41975309 L10,9.62962963 L3.33333333,9.62962963 L3.33333333,6.41975309 Z" id="Combined-Shape" fill-opacity="0.29" fill="#000000"></path>
                <path d="M0,18 L38,18 L38,34.0493827 L0,34.0493827 L0,18 Z M3.33333333,24.4197531 L10,24.4197531 L10,27.6296296 L3.33333333,27.6296296 L3.33333333,24.4197531 Z" id="Combined-Shape" fill-opacity="0.29" fill="#000000"></path>
                <path d="M0,36 L38,36 L38,52.0493827 L0,52.0493827 L0,36 Z M3.33333333,42.4197531 L10,42.4197531 L10,45.6296296 L3.33333333,45.6296296 L3.33333333,42.4197531 Z" id="Combined-Shape" fill-opacity="0.29" fill="#000000"></path>
                <path d="M132.269231,8.21052632 L132.269231,46.9403447 C132.269231,48.601078 130.930377,49.9473684 129.261281,49.9473684 L69.7387187,49.9473684 C68.0774741,49.9473684 66.7307692,48.6104971 66.7307692,46.9403447 L66.7307692,8.21052632 L132.269231,8.21052632 Z M64,3.0014819 C64,1.34380922 65.3392991,0 67.005432,0 L131.994568,0 C133.654422,0 135,1.3376562 135,3.0014819 L135,48.9985181 C135,50.6561908 133.660701,52 131.994568,52 L67.005432,52 C65.3455778,52 64,50.6623438 64,48.9985181 L64,3.0014819 Z M83.7980769,2.05263158 L132.269231,2.05263158 L132.269231,6.15789474 L83.7980769,6.15789474 L83.7980769,2.05263158 Z M76.9711538,5.47368421 C77.7252349,5.47368421 78.3365385,4.86102124 78.3365385,4.10526316 C78.3365385,3.34950508 77.7252349,2.73684211 76.9711538,2.73684211 C76.2170727,2.73684211 75.6057692,3.34950508 75.6057692,4.10526316 C75.6057692,4.86102124 76.2170727,5.47368421 76.9711538,5.47368421 Z M72.875,5.47368421 C73.6290811,5.47368421 74.2403846,4.86102124 74.2403846,4.10526316 C74.2403846,3.34950508 73.6290811,2.73684211 72.875,2.73684211 C72.1209189,2.73684211 71.5096154,3.34950508 71.5096154,4.10526316 C71.5096154,4.86102124 72.1209189,5.47368421 72.875,5.47368421 Z M68.7788462,5.47368421 C69.5329273,5.47368421 70.1442308,4.86102124 70.1442308,4.10526316 C70.1442308,3.34950508 69.5329273,2.73684211 68.7788462,2.73684211 C68.0247651,2.73684211 67.4134615,3.34950508 67.4134615,4.10526316 C67.4134615,4.86102124 68.0247651,5.47368421 68.7788462,5.47368421 Z" id="Combined-Shape" fill-opacity="0.288722826" fill="#000000"></path>
                <rect id="Rectangle-2" fill-opacity="0.770012455" fill="#2A2A2A" x="22" y="24" width="61" height="4"></rect>
                <polygon id="Triangle" fill-opacity="0.770012455" fill="#2A2A2A" points="83 33 83 19 90 26"></polygon>
            </g>
        </g>
    </g>
</svg>