<?xml version="1.0" encoding="UTF-8" standalone="no"?>
<svg width="120px" height="120px" viewBox="0 0 120 120" version="1.1" xmlns="http://www.w3.org/2000/svg" xmlns:xlink="http://www.w3.org/1999/xlink">
    <defs></defs>
    <path id="logo" stroke-width="1" stroke="#333333" fill="#333333" d="M66.5454545,49.8921002 L66.5454545,69.9903418 C66.5454545,75.1036295 65.1996997,79.2678821 62.5081496,82.4832246 C60.9605083,84.3365123 58.9923418,85.8101888 56.603591,86.9042984 C54.2148403,87.998408 51.764445,88.5454545 49.2523316,88.5454545 C44.2505343,88.5454545 40.0338357,86.8708221 36.6021093,83.5215071 C33.1703829,80.172192 31.4545455,76.0637605 31.4545455,71.1960892 C31.4545455,66.4847194 33.1591683,62.4097805 36.5684651,58.9711504 C39.9777619,55.5325202 44.0150265,53.8132309 48.68038,53.8132309 C49.4205563,53.8132309 50.5420187,53.8802162 52.0448008,54.0141888 L52.0448008,67.8132979 C51.01304,67.0094623 49.9812946,66.6075505 48.9495337,66.6075505 C47.6486178,66.6075505 46.5327627,67.0820297 45.601935,68.0310023 C44.6711072,68.9799749 44.2057003,70.1243071 44.2057003,71.4640331 C44.2057003,72.7591016 44.6879292,73.8699411 45.6524013,74.7965849 C46.6168734,75.7232288 47.7719797,76.1865437 49.1177547,76.1865437 C52.3476149,76.1865437 53.9625207,73.9648647 53.9625207,69.5214401 L53.9625207,48.5454545 L54.0325895,48.5454545 C54.2526829,44.0752836 55.5875779,40.3862857 58.037305,37.4783675 C59.5849463,35.6368215 61.5531128,34.1724816 63.9418635,33.0853039 C66.3306142,31.9981262 68.7810095,31.4545455 71.293123,31.4545455 C76.2949203,31.4545455 80.5116189,33.1185681 83.9433452,36.4466632 C87.3750716,39.7747583 89.0909091,43.8571604 89.0909091,48.6939919 C89.0909091,53.3976997 87.3862863,57.4579148 83.9769895,60.8747592 C80.5676926,64.2916035 76.530428,66 71.8650745,66 C71.1024687,66 69.9810063,65.9223456 68.5006537,65.7670345 L68.5006537,52.0553512 C69.5324146,52.8762813 70.56416,53.2867402 71.5959209,53.2867402 C72.8968367,53.2867402 74.0126918,52.8097204 74.9435196,51.8556665 C75.8743473,50.9016126 76.3397542,49.7700772 76.3397542,48.4610264 C76.3397542,47.1519757 75.8575254,46.0370806 74.8930533,45.1163076 C73.9285811,44.1955346 72.7734749,43.735155 71.4276998,43.735155 C68.1978397,43.735155 66.5829338,45.4768273 66.5829338,49.8921002 C66.5829338,49.8921002 66.5829338,45.9427583 66.5829338,50.3580312 L66.5829338,49.8921002 L66.5454545,49.8921002 L66.5454545,49.8921002 L66.5454545,49.8921002 Z M60,116 C90.9279475,116 116,90.9279475 116,60 C116,29.0720525 90.9279475,4 60,4 C29.0720525,4 4,29.0720525 4,60 C4,90.9279475 29.0720525,116 60,116 L60,116 L60,116 Z"></path>
</svg>