<?xml version="1.0" encoding="UTF-8"?>
<svg width="300px" height="160px" viewBox="0 0 300 160" version="1.1" xmlns="http://www.w3.org/2000/svg" xmlns:xlink="http://www.w3.org/1999/xlink">
    <!-- Generator: Sketch 39.1 (31720) - http://www.bohemiancoding.com/sketch -->
    <title>Icon Isolated</title>
    <desc>Created with Sketch.</desc>
    <defs></defs>
    <g id="Page-1" stroke="none" stroke-width="1" fill="none" fill-rule="evenodd">
        <g id="Icon-Isolated">
            <rect id="Rectangle-8" fill="#6B7A8C" x="0" y="0" width="300" height="160"></rect>
            <g id="Group-3" transform="translate(98.000000, 48.000000)" fill="#3D444D">
                <g id="Group-2">
                    <path d="M27.4307803,6 C21.5416868,13.0813734 18,22.1842321 18,32.114296 C18,42.04436 21.5416868,51.1472187 27.4307803,58.2285921 L27.4307803,52.973894 C23.4582383,46.9991407 21.1435934,39.8270255 21.1435934,32.114296 C21.1435934,24.4015666 23.4582383,17.2294514 27.4307803,11.2546981 L27.4307803,6 Z" id="Combined-Shape"></path>
                    <path d="M12.4307803,2.48689958e-13 C5.18861329,8.70838418 0.833191374,19.9027085 0.833191374,32.114296 C0.833191374,44.3258836 5.18861329,55.5202079 12.4307803,64.2285921 L12.4307803,57.7665788 C7.54551017,50.4190709 4.69905436,41.5990962 4.69905436,32.114296 C4.69905436,22.6294959 7.54551017,13.8095212 12.4307803,6.46201334 L12.4307803,-4.5519144e-14 Z" id="Combined-Shape-Copy-2"></path>
                    <path d="M39,15 C35.2532728,19.5052731 33,25.2966445 33,31.614296 C33,37.9319476 35.2532728,43.723319 39,48.2285921 L39,44.8854765 C36.4726108,41.0842514 35,36.521247 35,31.614296 C35,26.7073451 36.4726108,22.1443407 39,18.3431156 L39,15 Z" id="Combined-Shape-Copy"></path>
                </g>
                <g id="Group-2-Copy" transform="translate(85.500000, 32.500000) scale(-1, 1) translate(-85.500000, -32.500000) translate(66.000000, 0.000000)">
                    <path d="M27.4307803,6 C21.5416868,13.0813734 18,22.1842321 18,32.114296 C18,42.04436 21.5416868,51.1472187 27.4307803,58.2285921 L27.4307803,52.973894 C23.4582383,46.9991407 21.1435934,39.8270255 21.1435934,32.114296 C21.1435934,24.4015666 23.4582383,17.2294514 27.4307803,11.2546981 L27.4307803,6 Z" id="Combined-Shape"></path>
                    <path d="M12.4307803,2.48689958e-13 C5.18861329,8.70838418 0.833191374,19.9027085 0.833191374,32.114296 C0.833191374,44.3258836 5.18861329,55.5202079 12.4307803,64.2285921 L12.4307803,57.7665788 C7.54551017,50.4190709 4.69905436,41.5990962 4.69905436,32.114296 C4.69905436,22.6294959 7.54551017,13.8095212 12.4307803,6.46201334 L12.4307803,-4.5519144e-14 Z" id="Combined-Shape-Copy-2"></path>
                    <path d="M39,15 C35.2532728,19.5052731 33,25.2966445 33,31.614296 C33,37.9319476 35.2532728,43.723319 39,48.2285921 L39,44.8854765 C36.4726108,41.0842514 35,36.521247 35,31.614296 C35,26.7073451 36.4726108,22.1443407 39,18.3431156 L39,15 Z" id="Combined-Shape-Copy"></path>
                </g>
                <g id="Group" transform="translate(51.562178, 31.758330) rotate(-30.000000) translate(-51.562178, -31.758330) translate(44.562178, 18.758330)">
                    <polygon id="Triangle" points="6.83974596 1.42108547e-14 13.6794919 16.1666723 3.55271368e-14 16.1666723"></polygon>
                    <rect id="Rectangle-2" x="4.9743607" y="13.6794919" width="3.73077052" height="11.8141067"></rect>
                </g>
            </g>
        </g>
    </g>
</svg>